<?xml version="1.0" encoding="UTF-8"?>
<!-- Uploaded to: SVG Repo, www.svgrepo.com, Generator: SVG Repo Mixer Tools -->
<svg width="800px" height="800px" viewBox="-4 0 34 34" version="1.1" xmlns="http://www.w3.org/2000/svg" xmlns:xlink="http://www.w3.org/1999/xlink">
    
    <title>casino-card</title>
    <desc>Created with Sketch.</desc>
    <g id="icons" stroke="none" stroke-width="1" fill="none" fill-rule="evenodd">
        <g id="ui-gambling-website-lined-icnos-casinoshunter" transform="translate(-1907.000000, -413.000000)" fill="#1C1C1F" fill-rule="nonzero">
            <g id="1" transform="translate(1350.000000, 120.000000)">
                <path d="M579,293 C581.209139,293 583,294.790861 583,297 L583,323 C583,325.209139 581.209139,327 579,327 L561,327 C558.790861,327 557,325.209139 557,323 L557,297 C557,294.790861 558.790861,293 561,293 L579,293 Z M578,321 L576,321 C575.447715,321 575,321.447715 575,322 C575,322.552285 575.447715,323 576,323 L576,323 L578,323 C578.552285,323 579,322.552285 579,322 C579,321.447715 578.552285,321 578,321 L578,321 Z M572.183447,305 C571.450961,305 570.743698,305.242203 570.168489,305.682402 L570.168489,305.682402 L570,305.820357 C569.397478,305.293118 568.621855,305 567.816039,305 C566.936433,305 566.092804,305.349258 565.471028,305.971041 C564.849253,306.592823 564.5,307.436459 564.5,308.316071 C564.5,309.190497 564.845347,310.029434 565.46072,310.650272 L565.46072,310.650272 L569.273113,314.686848 C569.461592,314.886659 569.724957,315 570,315 C570.275043,315 570.538408,314.886659 570.727109,314.686612 L570.727109,314.686612 L574.54717,310.641584 C575.15448,310.029701 575.5,309.190733 575.5,308.316071 C575.5,307.436694 575.150398,306.592989 574.528458,305.971041 C573.906556,305.349133 573.06339,305 572.183447,305 Z M572.183447,306.9996 C572.532612,306.9996 572.867655,307.138396 573.114635,307.385379 C573.361242,307.632362 573.499897,307.967112 573.499897,308.316071 C573.499897,308.615179 573.398028,308.903847 573.213456,309.135923 L573.213456,309.135923 L573.10434,309.257058 L569.999988,312.54371 L566.894311,309.255942 L566.791941,309.141607 C566.601814,308.904071 566.500103,308.615555 566.500103,308.316071 C566.500103,307.966673 566.638543,307.632204 566.885365,307.385379 C567.132457,307.138284 567.467032,306.9996 567.816039,306.9996 C568.165191,306.9996 568.500085,307.138375 568.746445,307.385111 L568.746445,307.385111 L569.292831,307.931504 L569.386977,308.014638 C569.779015,308.319466 570.345939,308.291788 570.706703,307.931969 L570.706703,307.931969 L571.25294,307.385212 L571.363887,307.286148 C571.595719,307.101598 571.88456,306.9996 572.183447,306.9996 Z M565.5,308.316071 L565.507362,308.499528 L565.503845,308.44948 L565.5,308.316071 Z M566.313125,306.553672 L566.197,306.66 L566.244566,306.614509 C566.267064,306.593756 566.289918,306.573469 566.313125,306.553672 Z M571.703,306.051 L571.466831,306.113372 L571.650289,306.061871 L571.650289,306.061871 L571.703,306.051 Z M571.837936,306.025544 L571.703,306.051 L571.729516,306.044887 L571.837936,306.025544 L571.837936,306.025544 Z M564,297 L562,297 C561.447715,297 561,297.447715 561,298 C561,298.552285 561.447715,299 562,299 L562,299 L564,299 C564.552285,299 565,298.552285 565,298 C565,297.447715 564.552285,297 564,297 L564,297 Z" id="casino-card">
</path>
            </g>
        </g>
    </g>
</svg>