<svg width="30" height="30" viewBox="0 0 30 30" fill="none" xmlns="http://www.w3.org/2000/svg">
<rect y="-0.1875" width="30" height="30" rx="6" fill="#A2A2B2"/>
<path d="M16.8789 23.8125C17.4808 23.8125 18.0056 23.2876 18.0056 22.6858V20.0545H18.7579C19.2094 20.0545 19.5102 19.7535 19.5102 19.3022V11.7869H10.4897V19.3023C10.4897 19.7536 10.7907 20.0546 11.2421 20.0546H11.9944V22.6859C11.9944 23.2877 12.5191 23.8125 13.1211 23.8125C13.7229 23.8125 14.2477 23.2877 14.2477 22.6859V20.0546H15.7523V22.6859C15.7523 23.2876 16.2771 23.8125 16.8789 23.8125Z" fill="#1B1B33"/>
<path d="M21.3891 19.3023C21.991 19.3023 22.5157 18.7775 22.5157 18.1756V12.9131C22.5157 12.3144 21.991 11.7869 21.3891 11.7869C20.7872 11.7869 20.2625 12.3144 20.2625 12.9131V18.1756C20.2625 18.7774 20.7872 19.3023 21.3891 19.3023Z" fill="#1B1B33"/>
<path d="M8.61095 19.3023C9.21286 19.3023 9.73764 18.7775 9.73764 18.1756V12.9131C9.73764 12.3144 9.21293 11.7869 8.61095 11.7869C8.00912 11.7869 7.48438 12.3144 7.48438 12.9131V18.1756C7.48441 18.7774 8.00912 19.3023 8.61095 19.3023Z" fill="#1B1B33"/>
<path d="M18.6074 5.92601C18.457 5.77466 18.2331 5.77466 18.0827 5.92601L17.0736 6.93165L17.0271 6.97813C16.4288 6.67853 15.758 6.5289 15.011 6.52746C15.0073 6.52746 15.0037 6.52736 15.0001 6.52736H15C14.9962 6.52736 14.9927 6.52746 14.9889 6.52746C14.242 6.5289 13.5712 6.67853 12.9729 6.97813L12.9263 6.93165L11.9173 5.92601C11.7668 5.77466 11.543 5.77466 11.3926 5.92601C11.2421 6.07651 11.2421 6.2999 11.3926 6.45029L12.3686 7.42651C12.0541 7.6365 11.7689 7.89345 11.5209 8.18736C10.9272 8.89111 10.5485 9.80703 10.4964 10.7994C10.4959 10.8098 10.4949 10.82 10.4944 10.8303C10.4912 10.8979 10.4897 10.9658 10.4897 11.034H19.5102C19.5102 10.9658 19.5086 10.8979 19.5055 10.8303C19.505 10.82 19.504 10.8098 19.5034 10.7994C19.4515 9.80703 19.0727 8.89108 18.4789 8.18743C18.231 7.89352 17.9457 7.63657 17.6312 7.42658L18.6074 6.45036C18.7579 6.2999 18.7579 6.07655 18.6074 5.92601ZM13.1196 9.72044C12.8084 9.72044 12.556 9.46813 12.556 9.15686C12.556 8.84558 12.8084 8.59327 13.1196 8.59327C13.4309 8.59327 13.6832 8.84558 13.6832 9.15686C13.6832 9.46813 13.4309 9.72044 13.1196 9.72044ZM16.8803 9.72044C16.569 9.72044 16.3167 9.46813 16.3167 9.15686C16.3167 8.84558 16.569 8.59327 16.8803 8.59327C17.1915 8.59327 17.4439 8.84558 17.4439 9.15686C17.4439 9.46813 17.1916 9.72044 16.8803 9.72044Z" fill="#1B1B33"/>
</svg>
