<?xml version="1.0" encoding="iso-8859-1"?>
<!-- Uploaded to: SVG Repo, www.svgrepo.com, Generator: SVG Repo Mixer Tools -->
<svg fill="#000000" version="1.1" id="Layer_1" xmlns="http://www.w3.org/2000/svg" xmlns:xlink="http://www.w3.org/1999/xlink" 
	 viewBox="0 0 496 496" xml:space="preserve">
<g>
	<g>
		<g>
			<path d="M386.256,167.84C358.512,120.184,307,88,248,88s-110.512,32.184-138.256,79.84C39.984,185.512,0,214.624,0,248
				c0,33.824,43.04,63.04,109.52,80.088C138.104,377.416,190.944,408,248,408c56.976,0,109.944-30.608,138.512-79.92
				C452.976,311.032,496,281.824,496,248C496,214.624,456.008,185.512,386.256,167.84z M248,104c79.4,0,144,64.6,144,144
				c0,7.384-0.728,14.744-1.84,22.016C359.832,279.952,310.584,288,248,288c-17.304,0-33.472-0.664-48.632-1.768
				c0.32-2.056,0.632-4.12,0.632-6.232c0-22.056-17.944-40-40-40c-20.112,0-36.64,14.968-39.424,34.32
				c-5.352-1.376-10.2-2.824-14.728-4.304C104.728,262.744,104,255.384,104,248C104,168.6,168.6,104,248,104z M184,280
				c0,1.656-0.168,3.288-0.488,4.872c-17.616-1.76-33.464-4.16-47.296-7C137.312,265.648,147.496,256,160,256
				C173.232,256,184,266.768,184,280z M272.216,389.856C273.32,377.64,283.496,368,296,368c6.912,0,13.336,3,17.816,7.96
				C300.824,382.656,286.8,387.352,272.216,389.856z M327.744,367.816C320.272,358.04,308.632,352,296,352
				c-21.96,0-39.824,17.8-39.976,39.728C253.36,391.88,250.688,392,248,392c-46.088,0-89.12-22.184-116.056-58.824
				C166.392,340.096,205.792,344,248,344c42.2,0,81.584-3.904,116.032-10.816C353.952,346.88,341.648,358.576,327.744,367.816z
				 M248,328c-138.776,0-232-41.368-232-80c0-22.816,31.84-45.544,84.12-60.936c-3.584,8.664-6.408,17.712-8.432,27.056
				C68.096,223.416,56,234.784,56,248c0,36.768,96.584,56,192,56s192-19.232,192-56c0-13.216-12.104-24.584-35.688-33.88
				c-2.024-9.344-4.848-18.392-8.432-27.048C448.16,202.456,480,225.192,480,248C480,286.632,386.776,328,248,328z M88.744,263.296
				C77.928,258.08,72,252.728,72,248c0-3.52,4.68-9.168,16.768-15.176C88.296,237.824,88,242.88,88,248
				C88,253.104,88.264,258.216,88.744,263.296z M407.232,232.832C419.32,238.832,424,244.48,424,248
				c0,4.728-5.928,10.08-16.736,15.288C407.752,258.208,408,253.104,408,248C408,242.88,407.704,237.824,407.232,232.832z"/>
			<path d="M192,184c13.232,0,24-10.768,24-24s-10.768-24-24-24s-24,10.768-24,24S178.768,184,192,184z M192,152
				c4.416,0,8,3.584,8,8s-3.584,8-8,8s-8-3.584-8-8S187.584,152,192,152z"/>
			<path d="M304,240c17.648,0,32-14.352,32-32s-14.352-32-32-32s-32,14.352-32,32S286.352,240,304,240z M304,192
				c8.824,0,16,7.176,16,16c0,8.824-7.176,16-16,16c-8.824,0-16-7.176-16-16C288,199.176,295.176,192,304,192z"/>
			<rect x="216" width="16" height="16"/>
			<rect x="216" y="32" width="16" height="16"/>
			<rect x="232" y="16" width="16" height="16"/>
			<rect x="200" y="16" width="16" height="16"/>
			<rect x="56" y="80" width="16" height="16"/>
			<rect x="56" y="112" width="16" height="16"/>
			<rect x="72" y="96" width="16" height="16"/>
			<rect x="40" y="96" width="16" height="16"/>
			<rect x="464" y="120" width="16" height="16"/>
			<rect x="464" y="152" width="16" height="16"/>
			<rect x="480" y="136" width="16" height="16"/>
			<rect x="448" y="136" width="16" height="16"/>
			<rect x="320" y="448" width="16" height="16"/>
			<rect x="320" y="480" width="16" height="16"/>
			<rect x="336" y="464" width="16" height="16"/>
			<rect x="304" y="464" width="16" height="16"/>
			<rect x="56" y="400" width="16" height="16"/>
			<rect x="56" y="432" width="16" height="16"/>
			<rect x="72" y="416" width="16" height="16"/>
			<rect x="40" y="416" width="16" height="16"/>
			<rect x="400" y="344" width="16" height="16"/>
			<rect x="400" y="376" width="16" height="16"/>
			<rect x="416" y="360" width="16" height="16"/>
			<rect x="384" y="360" width="16" height="16"/>
			<rect x="264" y="48" width="16" height="16"/>
			<rect x="400" y="16" width="16" height="16"/>
			<rect y="352" width="16" height="16"/>
			<rect x="184" y="448" width="16" height="16"/>
			<rect x="104" y="32" width="16" height="16"/>
			<rect x="432" y="432" width="16" height="16"/>
		</g>
	</g>
</g>
</svg>