<?xml version="1.0" encoding="UTF-8"?>
<svg version="1.1" xmlns="http://www.w3.org/2000/svg" width="342" height="410">
<path d="M0 0 C1.79757745 1.44264178 3.54107068 2.95337123 5.25 4.5 C16.31569762 14.07066045 28.93258825 20.18673805 43 24 C43.88429687 24.24492187 44.76859375 24.48984375 45.6796875 24.7421875 C67.92375028 29.80080614 91.41512078 24.66044252 110.75 13.1875 C116.0802141 9.78299827 120.90737611 5.95187929 125.66015625 1.78515625 C128.10002507 -0.07631295 129.00414493 -0.67273712 132 -1 C134.55831496 -0.37739174 136.95382452 0.32225404 139.43969727 1.16210938 C140.18339066 1.40431213 140.92708405 1.64651489 141.6933136 1.89605713 C144.15471767 2.70114309 146.61061139 3.52172581 149.06640625 4.34375 C150.78295677 4.91181964 152.49966975 5.47939855 154.21653748 6.04650879 C157.82100446 7.24003754 161.42267061 8.44160803 165.02270508 9.6484375 C169.60744729 11.18433271 174.19942965 12.69710817 178.79399204 14.20333099 C182.34689313 15.37157919 185.89498814 16.55391814 189.44190788 17.7401886 C191.13101822 18.30293657 192.82167664 18.86106205 194.51394844 19.41423035 C209.78178441 24.41780781 223.01957481 30.15429529 230.8125 45.0625 C246.29913476 76.82860065 235 115.6599235 235 151 C122.14 151 9.28 151 -107 151 C-107 49.5075594 -107 49.5075594 -99.4375 39.25 C-98.85871094 38.43015625 -98.27992187 37.6103125 -97.68359375 36.765625 C-88.30709752 27.10251098 -77.74006157 23.32072732 -65.25 19.3125 C-63.45296438 18.7210412 -61.65650452 18.12783046 -59.8605957 17.53295898 C-56.13536207 16.30140163 -52.40692141 15.08027197 -48.67626953 13.86523438 C-43.02572198 12.0179844 -37.40043592 10.10079815 -31.77734375 8.171875 C-29.10732055 7.26105448 -26.43688416 6.35145876 -23.76623535 5.44247437 C-22.05312103 4.85788677 -20.34095146 4.27052297 -18.62976074 3.68032837 C-16.24994576 2.86143939 -13.86596807 2.05605819 -11.48046875 1.25390625 C-10.77816635 1.00884338 -10.07586395 0.76378052 -9.35227966 0.5112915 C-3.30342325 -1.49694589 -3.30342325 -1.49694589 0 0 Z " fill="#010101" transform="translate(107,259)"/>
<path d="M0 0 C12.85897966 10.77373972 21.22326583 26.73889471 22.85253906 43.46025085 C23.93731336 62.45199388 20.55489526 80.83697236 17.29541016 99.44995117 C16.73124775 102.70420504 16.18914139 105.96197283 15.64734268 109.22001266 C15.11635282 112.40266716 14.5751884 115.58352382 14.03069305 118.76389313 C13.77493749 120.26077375 13.52138511 121.75803285 13.2702713 123.25569916 C9.77790927 143.94812609 3.36460423 160.55936803 -13.9375 173.5 C-26.98853024 182.52136583 -41.5385157 187.30447798 -57.50390625 184.59375 C-75.92419201 180.26510047 -90.61062661 170.21990023 -100.76953125 154.19140625 C-106.08077046 144.04706859 -107.91268048 133.93803441 -109.75 122.75 C-110.04809412 120.98259591 -110.34709892 119.2153452 -110.64697266 117.44824219 C-111.26178081 113.81384033 -111.8698413 110.17840198 -112.47265625 106.54199219 C-113.20003119 102.16028395 -113.94406284 97.78167071 -114.6968689 93.40426636 C-115.25394408 90.16406551 -115.80619021 86.92305437 -116.35723877 83.68182373 C-116.61542907 82.16538202 -116.87479398 80.64913974 -117.13543701 79.13311768 C-121.23564824 55.20729733 -122.08732654 32.13841818 -107.4453125 11.390625 C-95.64063645 -3.81682243 -79.99968873 -13.12840163 -61.01953125 -16.46484375 C-38.23019273 -19.0295603 -18.13278358 -14.31535546 0 0 Z " fill="#020202" transform="translate(219.375,67.875)"/>
<path d="M0 0 C0.70995117 0.18804199 1.41990234 0.37608398 2.15136719 0.56982422 C32.64530604 9.01647057 60.37074764 29.24789203 76.11230469 56.95800781 C78.61046378 61.54795879 80.85894478 66.23438548 83 71 C83.48339844 72.06734375 83.96679688 73.1346875 84.46484375 74.234375 C90.41721452 88.49111714 92.57663832 103.65313919 93 119 C94.134375 118.95359375 95.26875 118.9071875 96.4375 118.859375 C111.68459894 118.41823845 111.68459894 118.41823845 118 123 C122.52092159 127.63989321 124.23947046 132.15464062 124.29052734 138.58129883 C124.30328705 139.67626175 124.31604675 140.77122467 124.32919312 141.89936829 C124.33253159 143.66041145 124.33253159 143.66041145 124.3359375 145.45703125 C124.3425943 146.67396164 124.3492511 147.89089203 124.35610962 149.1446991 C124.36622753 151.71762584 124.37092691 154.29057878 124.37060547 156.86352539 C124.37497242 160.78771539 124.41128676 164.71077498 124.44921875 168.63476562 C124.45508837 171.138017 124.45905679 173.6412737 124.4609375 176.14453125 C124.47530853 177.31248734 124.48967957 178.48044342 124.50448608 179.68379211 C124.46761566 186.30148989 124.16235174 191.66261547 120 197 C114.15601998 202.15131681 108.70241229 202.690104 101.15625 202.48828125 C99.64170227 202.47766914 99.64170227 202.47766914 98.09655762 202.46684265 C94.89692579 202.43903256 91.69909571 202.37631815 88.5 202.3125 C86.32033792 202.28739988 84.14064818 202.26458973 81.9609375 202.24414062 C76.64001857 202.18925037 71.32013805 202.10576005 66 202 C65.99453156 200.27470566 65.99453156 200.27470566 65.98895264 198.51455688 C65.95178617 187.60061984 65.89378062 176.68695932 65.81609726 165.77323341 C65.77682285 160.16424119 65.74453705 154.55540126 65.72900391 148.94628906 C65.71370416 143.51901719 65.67902701 138.09216461 65.63169098 132.66508102 C65.61701312 130.60900929 65.60896694 128.55287764 65.60811615 126.49675369 C65.5837026 97.04187535 58.13608729 72.42611936 37 51 C18.94427079 33.20267121 -4.59110904 24.28496805 -29.6875 23.8125 C-54.07054007 24.07384019 -77.01387118 32.38396527 -95 49 C-95.76441406 49.67289063 -96.52882813 50.34578125 -97.31640625 51.0390625 C-114.8228472 67.2972181 -124.60543087 91.33273561 -125.48530197 114.98351479 C-125.59104245 119.83572473 -125.60736684 124.68586957 -125.609375 129.5390625 C-125.62439651 131.64327236 -125.64113178 133.74747061 -125.65948486 135.85165405 C-125.70272531 141.32589329 -125.72306018 146.79997366 -125.73822021 152.27435303 C-125.75794937 157.88612092 -125.79990028 163.49772104 -125.83984375 169.109375 C-125.9146754 180.07286435 -125.96524981 191.03631532 -126 202 C-132.40440521 202.1273144 -138.80848125 202.21456565 -145.21386719 202.2746582 C-147.39042354 202.29972256 -149.56689639 202.33378331 -151.74316406 202.37719727 C-154.88106954 202.43820412 -158.01785737 202.46629122 -161.15625 202.48828125 C-162.60360535 202.52699089 -162.60360535 202.52699089 -164.0802002 202.56648254 C-170.55426805 202.5691391 -175.07432973 201.344978 -180 197 C-184.85764963 190.7496196 -184.58459486 183.88282645 -184.53125 176.25 C-184.5350769 175.03731445 -184.53890381 173.82462891 -184.54284668 172.57519531 C-184.54555954 170.02017381 -184.53824249 167.46512424 -184.52148438 164.91015625 C-184.50006806 161.01238743 -184.52130979 157.11646189 -184.546875 153.21875 C-184.54423162 150.72916262 -184.53910642 148.23957639 -184.53125 145.75 C-184.53934692 144.59145508 -184.54744385 143.43291016 -184.55578613 142.23925781 C-184.47656956 135.361336 -183.69768001 130.84812801 -180 125 C-174.97876718 120.10751674 -170.34868654 118.76558263 -163.51757812 118.82421875 C-162.36418945 118.84935547 -162.36418945 118.84935547 -161.1875 118.875 C-160.39923828 118.88402344 -159.61097656 118.89304687 -158.79882812 118.90234375 C-156.86575334 118.92577496 -154.9328362 118.96164162 -153 119 C-152.97873047 117.52466797 -152.97873047 117.52466797 -152.95703125 116.01953125 C-151.95843911 81.12855128 -136.66397386 51.36623826 -111.7890625 27.42578125 C-96.20879079 12.98720216 -76.50801439 3.91531463 -56 -1 C-54.99839844 -1.24492187 -53.99679688 -1.48984375 -52.96484375 -1.7421875 C-36.06294593 -5.0634218 -16.66690111 -4.41467265 0 0 Z " fill="#060606" transform="translate(201,3)"/>
<path d="M0 0 C0.66 0.33 1.32 0.66 2 1 C-3.28 6.28 -8.56 11.56 -14 17 C-14 12.95607032 -12.51908749 11.99868382 -9.8125 9.0625 C-9.03519531 8.20785156 -8.25789063 7.35320312 -7.45703125 6.47265625 C-5.09786332 4.09848566 -2.65532732 2.0327639 0 0 Z " fill="#434343" transform="translate(127,64)"/>
<path d="M0 0 C0.66 0.33 1.32 0.66 2 1 C-1.3 4.3 -4.6 7.6 -8 11 C-8.66 10.67 -9.32 10.34 -10 10 C-3.84965831 2.51708428 -3.84965831 2.51708428 0 0 Z " fill="#414141" transform="translate(18,288)"/>
</svg>
