<?xml version="1.0" encoding="UTF-8"?>
<svg version="1.1" xmlns="http://www.w3.org/2000/svg" width="512" height="512">
<path d="M0 0 C1.16403776 -0.00453111 2.32807551 -0.00906223 3.52738714 -0.01373065 C6.72255677 -0.02411844 9.91758297 -0.02571474 13.11276388 -0.02334189 C16.57310655 -0.0229306 20.03341672 -0.03400258 23.4937439 -0.04345703 C30.26065041 -0.06000223 37.02752206 -0.06556367 43.79444712 -0.06668179 C49.30219399 -0.06763556 54.80992947 -0.07176224 60.31767273 -0.07808304 C75.9720006 -0.09567952 91.62630116 -0.10492467 107.28063899 -0.10342209 C108.54400113 -0.10330222 108.54400113 -0.10330222 109.83288574 -0.10317993 C110.67616934 -0.10309817 111.51945294 -0.10301641 112.38829058 -0.10293217 C126.0378343 -0.10212023 139.68726742 -0.12123893 153.33677918 -0.14945666 C167.3900977 -0.1782772 181.44336246 -0.19199186 195.49671125 -0.19026911 C203.37119186 -0.18960826 211.24555659 -0.19496559 219.12001038 -0.21662521 C225.82757605 -0.23495846 232.53497335 -0.23908606 239.24255341 -0.22560637 C242.65585422 -0.21913644 246.06857348 -0.22097051 249.481884 -0.23631287 C270.84591469 -0.32605233 290.15719229 1.62041263 309.8338623 10.26742554 C310.48806152 10.55069702 311.14226074 10.83396851 311.81628418 11.12582397 C322.95377608 16.04261918 332.433633 22.57445888 341.8338623 30.26742554 C342.8444873 31.09242554 343.8551123 31.91742554 344.8963623 32.76742554 C352.26955775 39.13518524 358.15714352 46.40059478 363.8338623 54.26742554 C364.23878906 54.8241394 364.64371582 55.38085327 365.06091309 55.95443726 C379.44109068 76.04395486 387.17296086 100.80635801 387.10128784 125.43356323 C387.10581895 126.59760099 387.11035007 127.76163875 387.11501849 128.96095037 C387.12540628 132.15612 387.12700258 135.3511462 387.12462974 138.54632711 C387.12421844 142.00666978 387.13529042 145.46697996 387.14474487 148.92730713 C387.16129007 155.69421364 387.16685151 162.4610853 387.16796963 169.22801036 C387.16892341 174.73575723 387.17305008 180.2434927 387.17937088 185.75123596 C387.19696736 201.40556383 387.20621251 217.05986439 387.20470993 232.71420223 C387.20459006 233.97756437 387.20459006 233.97756437 387.20446777 235.26644897 C387.20438601 236.10973257 387.20430425 236.95301617 387.20422001 237.82185382 C387.20340807 251.47139753 387.22252678 265.12083065 387.25074451 278.77034241 C387.27956505 292.82366094 387.29327971 306.8769257 387.29155695 320.93027449 C387.2908961 328.80475509 387.29625343 336.67911982 387.31791306 344.55357361 C387.3362463 351.26113929 387.3403739 357.96853659 387.32689421 364.67611665 C387.32042428 368.08941746 387.32225836 371.50213671 387.33760071 374.91544724 C387.42734017 396.27947792 385.48087521 415.59075552 376.8338623 435.26742554 C376.55059082 435.92162476 376.26731934 436.57582397 375.97546387 437.24984741 C371.05866866 448.38733932 364.52682896 457.86719623 356.8338623 467.26742554 C356.0088623 468.27805054 355.1838623 469.28867554 354.3338623 470.32992554 C347.9661026 477.70312099 340.70069306 483.59070675 332.8338623 489.26742554 C332.27714844 489.67235229 331.72043457 490.07727905 331.14685059 490.49447632 C311.05733298 504.87465391 286.29492983 512.60652409 261.66772461 512.53485107 C260.50368685 512.53938219 259.3396491 512.5439133 258.14033747 512.54858172 C254.94516784 512.55896952 251.75014164 512.56056581 248.55496073 512.55819297 C245.09461806 512.55778167 241.63430789 512.56885365 238.17398071 512.57830811 C231.4070742 512.5948533 224.64020255 512.60041475 217.87327749 512.60153286 C212.36553062 512.60248664 206.85779514 512.60661331 201.35005188 512.61293411 C185.69572401 512.6305306 170.04142345 512.63977574 154.38708562 512.63827316 C153.12372348 512.6381533 153.12372348 512.6381533 151.83483887 512.63803101 C150.99155527 512.63794924 150.14827167 512.63786748 149.27943403 512.63778324 C135.62989031 512.6369713 121.98045719 512.65609001 108.33094543 512.68430774 C94.27762691 512.71312828 80.22436215 512.72684294 66.17101336 512.72512019 C58.29653275 512.72445933 50.42216802 512.72981666 42.54771423 512.75147629 C35.84014856 512.76980953 29.13275126 512.77393713 22.4251712 512.76045744 C19.01187039 512.75398752 15.59915113 512.75582159 12.18584061 512.77116394 C-9.17819008 512.86090341 -28.48946768 510.91443844 -48.1661377 502.26742554 C-48.82033691 501.98415405 -49.47453613 501.70088257 -50.14855957 501.4090271 C-61.28605148 496.49223189 -70.76590839 489.96039219 -80.1661377 482.26742554 C-81.6820752 481.02992554 -81.6820752 481.02992554 -83.2286377 479.76742554 C-90.60183314 473.39966583 -96.48941891 466.13425629 -102.1661377 458.26742554 C-102.77352783 457.43235474 -102.77352783 457.43235474 -103.39318848 456.58041382 C-117.77336607 436.49089622 -125.50523625 411.72849306 -125.43356323 387.10128784 C-125.43809435 385.93725008 -125.44262546 384.77321233 -125.44729388 383.5739007 C-125.45768167 380.37873108 -125.45927797 377.18370487 -125.45690513 373.98852396 C-125.45649383 370.52818129 -125.46756581 367.06787112 -125.47702026 363.60754395 C-125.49356546 356.84063743 -125.49912691 350.07376578 -125.50024502 343.30684072 C-125.5011988 337.79909385 -125.50532547 332.29135837 -125.51164627 326.78361511 C-125.52924275 311.12928724 -125.5384879 295.47498668 -125.53698532 279.82064885 C-125.53690541 278.97840742 -125.5368255 278.13616599 -125.53674316 277.2684021 C-125.5366614 276.4251185 -125.53657964 275.5818349 -125.5364954 274.71299726 C-125.53568346 261.06345354 -125.55480217 247.41402042 -125.5830199 233.76450866 C-125.61184044 219.71119014 -125.6255551 205.65792538 -125.62383235 191.60457659 C-125.62317149 183.73009598 -125.62852882 175.85573125 -125.65018845 167.98127747 C-125.66852169 161.27371179 -125.67264929 154.56631449 -125.6591696 147.85873443 C-125.65269967 144.44543362 -125.65453375 141.03271436 -125.6698761 137.61940384 C-125.75961556 116.25537315 -123.8131506 96.94409555 -115.1661377 77.26742554 C-114.88286621 76.61322632 -114.59959473 75.9590271 -114.30773926 75.28500366 C-109.39094405 64.14751176 -102.85910435 54.66765485 -95.1661377 45.26742554 C-94.3411377 44.25680054 -93.5161377 43.24617554 -92.6661377 42.20492554 C-86.29837799 34.83173009 -79.03296845 28.94414433 -71.1661377 23.26742554 C-70.60942383 22.86249878 -70.05270996 22.45757202 -69.47912598 22.04037476 C-49.38960837 7.66019716 -24.62720522 -0.07167302 0 0 Z M-51.1661377 62.26742554 C-51.81969238 62.73535522 -52.47324707 63.20328491 -53.14660645 63.68539429 C-69.63299861 76.41241911 -79.16708877 98.00622398 -81.9585433 118.15041554 C-82.38814079 122.53137287 -82.31029004 126.92975048 -82.30657959 131.32771301 C-82.30955071 132.43313118 -82.31252183 133.53854934 -82.31558299 134.67746502 C-82.32424645 138.37730006 -82.32577627 142.07710265 -82.32727051 145.77694702 C-82.33190043 148.43178966 -82.33690509 151.0866294 -82.34231567 153.74147034 C-82.35587007 160.95264227 -82.36191958 168.16380863 -82.36632633 175.37499118 C-82.36909441 179.88401389 -82.37333286 184.39303447 -82.37783051 188.90205574 C-82.39002083 201.40354878 -82.40031968 213.90504011 -82.4037056 226.40653896 C-82.40392516 227.20595838 -82.40414473 228.0053778 -82.40437095 228.82902205 C-82.40458923 229.63028386 -82.4048075 230.43154566 -82.4050324 231.25708812 C-82.40547585 232.88056974 -82.40592241 234.50405135 -82.40637207 236.12753296 C-82.4065935 236.9328247 -82.40681493 237.73811644 -82.40704307 238.56781096 C-82.41098622 251.59956666 -82.42842653 264.63126628 -82.45173159 277.66300034 C-82.47550428 291.0652485 -82.48791018 304.46746859 -82.48907351 317.86973816 C-82.48998711 325.38532668 -82.49565917 332.90084217 -82.51389313 340.41641045 C-82.52937442 346.81969347 -82.53436776 353.22288089 -82.52615502 359.62617909 C-82.52227628 362.88694605 -82.52470799 366.14748289 -82.53721237 369.40823364 C-82.6234051 393.29823537 -80.60784819 414.335478 -66.1661377 434.26742554 C-65.52160645 435.16976929 -64.8770752 436.07211304 -64.2130127 437.00180054 C-51.27675632 453.96267001 -32.79428388 463.95160772 -12.1661377 468.26742554 C-11.33490513 468.44365039 -10.50367256 468.61987524 -9.64725113 468.80144024 C-4.81136515 469.44877673 -0.03754061 469.41546359 4.83636475 469.41459656 C5.94768446 469.41827325 7.05900417 469.42194993 8.20400023 469.42573804 C11.92990947 469.43675561 15.65579079 469.44061552 19.38171387 469.44442749 C22.05286829 469.45069377 24.72401976 469.45732831 27.39517212 469.46434021 C35.41358957 469.4840699 43.43200822 469.49416796 51.45044386 469.503068 C55.23366415 469.50745803 59.01688304 469.51282311 62.80010223 469.51805687 C75.38990615 469.53506828 87.97970922 469.54955893 100.56952286 469.55680561 C103.83406831 469.55871528 107.09861375 469.56063564 110.36315918 469.56259155 C111.17447303 469.56307529 111.98578688 469.56355903 112.821686 469.56405743 C125.94270343 469.57234459 139.0636293 469.59765961 152.18460682 469.63017223 C165.67949359 469.66333643 179.17433399 469.68126293 192.66926169 469.68444985 C200.23637556 469.68660668 207.80335606 469.6952329 215.37042999 469.72091103 C221.81981082 469.74274665 228.26902589 469.75060603 234.71843949 469.74094424 C238.00179032 469.73643587 241.28473292 469.74031682 244.56805038 469.75770569 C270.54490264 469.88749459 291.74028435 466.2261906 312.8338623 450.26742554 C313.48741699 449.79949585 314.14097168 449.33156616 314.81433105 448.84945679 C331.30072322 436.12243196 340.83481338 414.5286271 343.62626791 394.38443553 C344.0558654 390.0034782 343.97801465 385.60510059 343.9743042 381.20713806 C343.97727532 380.1017199 343.98024644 378.99630174 343.9833076 377.85738605 C343.99197106 374.15755101 343.99350088 370.45774842 343.99499512 366.75790405 C343.99962504 364.10306141 344.0046297 361.44822167 344.01004028 358.79338074 C344.02359468 351.5822088 344.02964419 344.37104245 344.03405094 337.1598599 C344.03681902 332.65083719 344.04105747 328.1418166 344.04555511 323.63279533 C344.05774544 311.1313023 344.06804429 298.62981096 344.07143021 286.12831211 C344.07164977 285.32889269 344.07186934 284.52947327 344.07209556 283.70582902 C344.07231384 282.90456722 344.07253211 282.10330541 344.07275701 281.27776295 C344.07320046 279.65428134 344.07364702 278.03079973 344.07409668 276.40731812 C344.07431811 275.60202637 344.07453954 274.79673463 344.07476768 273.96704011 C344.07871083 260.93528442 344.09615114 247.9035848 344.1194562 234.87185074 C344.14322889 221.46960258 344.15563479 208.06738248 344.15679812 194.66511291 C344.15771172 187.14952439 344.16338378 179.63400891 344.18161774 172.11844063 C344.19709903 165.71515761 344.20209236 159.31197018 344.19387963 152.90867198 C344.19000089 149.64790502 344.1924326 146.38736819 344.20493698 143.12661743 C344.29112971 119.2366157 342.2755728 98.19937308 327.8338623 78.26742554 C327.18933105 77.36508179 326.5447998 76.46273804 325.8807373 75.53305054 C312.94448093 58.57218106 294.46200849 48.58324336 273.8338623 44.26742554 C273.00262974 44.09120069 272.17139717 43.91497583 271.31497574 43.73341084 C266.47908976 43.08607434 261.70526522 43.11938748 256.83135986 43.12025452 C255.72004015 43.11657783 254.60872044 43.11290114 253.46372437 43.10911304 C249.73781514 43.09809546 246.01193382 43.09423555 242.28601074 43.09042358 C239.61485632 43.08415731 236.94370485 43.07752276 234.27255249 43.07051086 C226.25413504 43.05078117 218.23571639 43.04068311 210.21728075 43.03178307 C206.43406046 43.02739305 202.65084157 43.02202797 198.86762238 43.0167942 C186.27781846 42.9997828 173.68801539 42.98529214 161.09820175 42.97804546 C157.8336563 42.9761358 154.56911085 42.97421543 151.30456543 42.97225952 C150.49325158 42.97177578 149.68193773 42.97129204 148.84603861 42.97079364 C135.72502118 42.96250648 122.60409531 42.93719146 109.48311779 42.90467884 C95.98823102 42.87151464 82.49339062 42.85358814 68.99846292 42.85040122 C61.43134905 42.84824439 53.86436855 42.83961817 46.29729462 42.81394005 C39.84791379 42.79210442 33.39869872 42.78424504 26.94928512 42.79390683 C23.66593429 42.7984152 20.38299169 42.79453425 17.09967422 42.77714539 C-8.87717803 42.64735649 -30.07255974 46.30866047 -51.1661377 62.26742554 Z " fill="#020202" transform="translate(125.1661376953125,-0.267425537109375)"/>
<path d="M0 0 C2.67262616 2.15086347 5.23708397 4.37507608 7.78125 6.67578125 C8.64105469 7.41699219 9.50085938 8.15820312 10.38671875 8.921875 C33.6343925 29.21523015 49.70836672 58.78043755 52.78125 89.67578125 C54.97401422 123.92992521 48.16120922 158.6997721 24.98046875 185.23828125 C23.89185547 186.44484375 23.89185547 186.44484375 22.78125 187.67578125 C22.08644531 188.50078125 21.39164063 189.32578125 20.67578125 190.17578125 C0.32237116 213.90288955 -29.26313367 228.954756 -60.21875 232.67578125 C-94.47031918 234.87046194 -129.2537484 228.04612563 -155.78125 204.875 C-156.9878125 203.78638672 -156.9878125 203.78638672 -158.21875 202.67578125 C-159.04375 201.98097656 -159.86875 201.28617188 -160.71875 200.5703125 C-184.4458583 180.21690241 -199.49772475 150.63139758 -203.21875 119.67578125 C-205.58457874 82.75316791 -196.92452288 48.79622923 -172.44921875 20.40625 C-129.00866164 -28.55840804 -53.7098255 -38.7831871 0 0 Z M-129.21875 38.67578125 C-129.95738281 39.22878906 -130.69601563 39.78179687 -131.45703125 40.3515625 C-148.34893433 53.9937207 -157.71675906 75.5374653 -160.21875 96.67578125 C-161.66617071 122.47883883 -153.90099813 144.08240354 -137 163.7578125 C-122.61119668 179.32341438 -101.35828858 188.62607055 -80.328125 189.9140625 C-58.12884197 190.48104833 -38.90336929 184.16000513 -21.21875 170.67578125 C-20.48011719 170.12277344 -19.74148438 169.56976563 -18.98046875 169 C-2.08856567 155.3578418 7.27925906 133.8140972 9.78125 112.67578125 C11.22867071 86.87272367 3.46349813 65.26915896 -13.4375 45.59375 C-27.82630332 30.02814812 -49.07921142 20.72549195 -70.109375 19.4375 C-92.30865803 18.87051417 -111.53413071 25.19155737 -129.21875 38.67578125 Z " fill="#040404" transform="translate(331.21875,151.32421875)"/>
<path d="M0 0 C6.44850755 5.05674333 10.60404398 12.85596066 12.1875 20.8125 C13.2883253 29.94527289 11.59290274 38.06233116 6.19921875 45.5859375 C-0.44989386 53.41788016 -7.53634706 57.71504677 -17.8125 58.8125 C-27.39666036 59.06545438 -34.2444355 55.8871588 -42.0625 50.625 C-49.13807263 43.3886189 -52.50626093 35.431728 -52.91015625 25.3828125 C-52.54016811 16.11830954 -48.24461282 7.70630915 -41.625 1.3125 C-28.94181604 -8.88503484 -13.48846133 -8.53775135 0 0 Z " fill="#060606" transform="translate(414.8125,91.1875)"/>
</svg>
