<?xml version="1.0" encoding="UTF-8"?>
<svg version="1.1" xmlns="http://www.w3.org/2000/svg" width="428" height="384">
<path d="M0 0 C84.48 0 168.96 0 256 0 C256.1613254 66.05826851 256.1613254 66.05826851 256.1953125 93.66210938 C256.2031436 99.98006227 256.21122542 106.29801477 256.21972656 112.6159668 C256.22078156 113.40778333 256.22183655 114.19959987 256.22292352 115.01541084 C256.24030521 127.78689638 256.27183187 140.55830964 256.30861118 153.32975236 C256.34606065 166.44359488 256.36824431 179.55739964 256.37635398 192.67129344 C256.38183347 200.75868823 256.39911931 208.84587879 256.43166587 216.93321069 C256.45537462 223.14198998 256.45780974 229.35061462 256.45243073 235.55943298 C256.45352929 238.10105329 256.46146083 240.64268148 256.4768219 243.1842556 C256.4968067 246.66204334 256.49190736 250.13896657 256.48101807 253.61677551 C256.49266943 254.61583556 256.5043208 255.6148956 256.51632524 256.64423019 C256.41726122 268.39879433 251.95688314 278.56610083 244 287.16015625 C235.53955467 295.24290313 226.04746102 299.15017107 214.45579529 299.14717102 C213.31074881 299.15268605 213.31074881 299.15268605 212.14257008 299.1583125 C209.58258873 299.16933243 207.02264799 299.17319034 204.46264648 299.17700195 C202.62770967 299.18326799 200.79277413 299.18991492 198.95783997 299.19691467 C192.92893353 299.21794466 186.90002688 299.22831759 180.87109375 299.23828125 C178.79359486 299.24232951 176.71609611 299.24644645 174.63859749 299.25063133 C164.87557165 299.26968241 155.11255337 299.28391238 145.34951252 299.2922433 C134.09154289 299.30200911 122.83377023 299.32831191 111.57586998 299.36874419 C102.86740754 299.39894328 94.15900144 299.41371587 85.45048767 299.41702431 C80.25277055 299.41937089 75.05526387 299.42828002 69.85760307 299.45348549 C64.96312731 299.4768369 60.06899947 299.48097105 55.17448235 299.47072411 C53.38431132 299.47023032 51.59412276 299.47650418 49.80400467 299.49028015 C34.9965843 299.59779659 23.10774159 297.43248408 11.83984375 287 C4.90652042 279.74268959 -0.12787185 270.57683756 -0.12304783 260.36920547 C-0.12503888 259.43814145 -0.12702993 258.50707743 -0.12908131 257.54779935 C-0.12616847 256.52834942 -0.12325563 255.50889948 -0.12025452 254.45855713 C-0.12110894 253.37299805 -0.12196337 252.28743898 -0.12284368 251.16898417 C-0.12449522 247.51921503 -0.11898239 243.8694915 -0.11352539 240.21972656 C-0.11324342 237.60833233 -0.11340144 234.99693801 -0.1139679 232.38554382 C-0.1144924 226.75707779 -0.11135323 221.12862334 -0.10573006 215.50016022 C-0.09760516 207.36233473 -0.09499882 199.22451485 -0.09374207 191.08668575 C-0.09155311 177.88379644 -0.08489724 164.6809133 -0.07543945 151.47802734 C-0.06626131 138.6521813 -0.05919391 125.82633694 -0.05493164 113.00048828 C-0.05466364 112.20192197 -0.05439565 111.40335566 -0.05411953 110.58059037 C-0.05204012 104.33533481 -0.05008319 98.09007921 -0.04816496 91.8448236 C-0.03873023 61.22987673 -0.01861217 30.61494532 0 0 Z M102.78198242 76.765625 C100.60175047 78.77666385 98.51065685 80.84756408 96.4375 82.96875 C95.30054688 84.1056427 95.30054688 84.1056427 94.140625 85.26550293 C92.55502897 86.8564225 90.97549305 88.45340327 89.40185547 90.05615234 C86.99269843 92.50742922 84.56262825 94.93641618 82.12890625 97.36328125 C80.58466472 98.91800767 79.04165145 100.47395525 77.5 102.03125 C76.77611084 102.75534058 76.05222168 103.47943115 75.30639648 104.22546387 C74.30394897 105.25177917 74.30394897 105.25177917 73.28125 106.29882812 C72.40049805 107.19220886 72.40049805 107.19220886 71.50195312 108.1036377 C68.08644621 112.41604829 67.45132745 116.60471996 68 122 C69.91718098 127.81690137 72.4948742 131.07174159 78 134 C82.4968218 135.4989406 86.32332097 135.64994861 90.78125 133.921875 C94.88865096 131.46939773 97.89070321 128.43401672 101.1875 125 C101.80302734 124.3709375 102.41855469 123.741875 103.05273438 123.09375 C104.19517793 121.92531368 105.33449282 120.75380323 106.46948242 119.578125 C107.96461676 118.03648386 109.47761286 116.51468824 111 115 C110.34 115.99 109.68 116.98 109 118 C108.799877 120.89278175 108.71669622 123.68953324 108.7253418 126.58300781 C108.72023087 127.45977676 108.71511993 128.33654572 108.70985413 129.23988342 C108.69593136 132.14436636 108.69691743 135.04861261 108.69921875 137.953125 C108.69533224 139.97231128 108.69099767 141.99149675 108.68623352 144.01068115 C108.67876477 148.24754482 108.67906657 152.48432519 108.68432617 156.72119141 C108.6901104 162.14283969 108.67321825 167.5641452 108.6499815 172.98573685 C108.63522382 177.15854884 108.63437543 181.33127878 108.63749123 185.50411224 C108.63697867 187.50233385 108.6317532 189.50056013 108.62167931 191.49875641 C108.60929802 194.2991993 108.61611766 197.09898119 108.62768555 199.89941406 C108.62004181 200.7204512 108.61239807 201.54148834 108.60452271 202.3874054 C108.65762408 208.2240198 109.58458758 213.12726949 113.46484375 217.7421875 C118.79288121 221.84067786 122.30196982 222.45410374 129 222 C134.6928727 220.2332464 137.67322442 217.942638 141 213 C142.93068919 207.56671511 143.30363218 202.71992329 143.31884766 197.03540039 C143.32889328 196.16631042 143.3389389 195.29722046 143.34928894 194.40179443 C143.37999625 191.55042131 143.3971213 188.69914154 143.4140625 185.84765625 C143.43278417 183.86225081 143.45235833 181.87685324 143.4727478 179.89146423 C143.5239694 174.68179984 143.56364844 169.47210968 143.60089111 164.2623291 C143.64099337 158.93979571 143.69205729 153.61736859 143.7421875 148.29492188 C143.83882868 137.86335601 143.92327116 127.43173001 144 117 C144.38220703 117.4031543 144.76441406 117.80630859 145.15820312 118.22167969 C146.92776551 120.07535485 148.7135958 121.91255568 150.5 123.75 C151.10070312 124.38421875 151.70140625 125.0184375 152.3203125 125.671875 C157.33383579 130.792069 162.28628068 134.46946867 169.5 135.5 C175.35470208 134.66361399 179.45016025 132.70879767 183.4375 128.3125 C185.95770643 122.96966238 186.84023124 118.52010888 184.94775391 112.84399414 C182.82136811 108.04748618 179.30199635 104.70939122 175.62109375 101.0546875 C174.8943898 100.32178497 174.16768585 99.58888245 173.41896057 98.83377075 C171.88319002 97.29091951 170.34229708 95.75315224 168.79663086 94.22021484 C166.45353945 91.89094484 164.13537434 89.53877015 161.81835938 87.18359375 C160.31655637 85.68083898 158.81334503 84.17949007 157.30859375 82.6796875 C156.28456703 81.63577347 156.28456703 81.63577347 155.23985291 80.57077026 C140.70033219 66.30311939 119.13935193 63.74454671 102.78198242 76.765625 Z " fill="#010101" transform="translate(86,85)"/>
<path d="M0 0 C2.73499863 -0.00323093 5.46997054 -0.01241219 8.20495605 -0.02124023 C14.82831803 -0.03891887 21.45149751 -0.03523347 28.07486629 -0.02358967 C33.4633781 -0.01451328 38.85183917 -0.0133494 44.24035645 -0.01768494 C45.01067019 -0.01829787 45.78098393 -0.0189108 46.57464051 -0.01954231 C48.14008428 -0.02082136 49.70552804 -0.02211821 51.27097178 -0.02343267 C65.91027396 -0.03480725 80.54947555 -0.021774 95.18876123 -0.00023121 C107.71833906 0.01763694 120.24776859 0.01453195 132.77734375 -0.00390625 C147.36840628 -0.02536839 161.95938089 -0.0337089 176.550457 -0.0214572 C178.10976917 -0.02018315 179.66908136 -0.01892567 181.22839355 -0.01768494 C182.37886307 -0.01675928 182.37886307 -0.01675928 183.5525744 -0.01581493 C188.92736457 -0.01237801 194.30209844 -0.01815435 199.67687988 -0.02760315 C206.23735938 -0.03888416 212.79764774 -0.03565615 219.35810566 -0.01448017 C222.6980187 -0.00405072 226.03735456 -0.00190237 229.37730408 -0.01307678 C259.13021827 -0.10339639 282.13820039 6.23169338 303.734375 27.51757812 C304.4046875 28.175 305.075 28.83242188 305.765625 29.50976562 C320.44740958 45.05911021 327.17517921 67.49250529 326.8828125 88.51367188 C325.8615749 109.18029588 318.52011018 128.0474956 304.734375 143.51757812 C304.06921875 144.27683594 303.4040625 145.03609375 302.71875 145.81835938 C295.26539293 153.81001445 285.68742147 160.04081889 275.734375 164.51757812 C274.744375 164.51757812 273.754375 164.51757812 272.734375 164.51757812 C272.72628815 163.51470261 272.71820129 162.51182709 272.70986938 161.4785614 C272.63211202 151.98996609 272.5443001 142.50150896 272.44684792 133.0130949 C272.39707416 128.13595568 272.35074365 123.25883614 272.3125 118.3815918 C272.27540669 113.6676713 272.22898414 108.9539236 272.17631149 104.24015236 C272.15789447 102.44902414 272.14274062 100.65785905 272.13103104 98.86667442 C272.592319 81.38124834 272.592319 81.38124834 266.6953125 65.37304688 C260.91050797 59.89937725 251.07667559 55.3982076 243.14244652 55.38615036 C242.19454007 55.38230922 241.24663361 55.37846807 240.27000272 55.37451053 C239.22654239 55.37537701 238.18308205 55.37624349 237.10800171 55.37713623 C236.00106228 55.37416511 234.89412286 55.37119399 233.75363982 55.36813283 C230.02504269 55.35942507 226.2964776 55.35793582 222.56787109 55.35644531 C219.90226082 55.35181855 217.23665348 55.34681481 214.57104492 55.34140015 C207.31465302 55.32781246 200.05826665 55.3217911 192.80186415 55.31738949 C188.27013628 55.31462715 183.73841054 55.31038974 179.20668411 55.30588531 C166.65815808 55.29369084 154.10963375 55.28339268 141.56110191 55.28001022 C140.75778108 55.27979066 139.95446024 55.27957109 139.12679634 55.27934487 C138.32155392 55.27912659 137.5163115 55.27890832 136.6866678 55.27868342 C135.0549465 55.27823996 133.4232252 55.2777934 131.79150391 55.27734375 C130.98211399 55.27712232 130.17272407 55.27690089 129.33880718 55.27667275 C116.23093662 55.27272682 103.12312173 55.25527985 90.01527266 55.23198423 C76.55555431 55.20825657 63.09586386 55.19580769 49.63612425 55.19464231 C42.07989893 55.19372621 34.52374608 55.18799057 26.96754074 55.16982269 C20.53138873 55.15440243 14.09533157 55.14931248 7.65916459 55.1575608 C4.37701493 55.16146087 1.09509562 55.15892891 -2.18703842 55.14650345 C-5.75063955 55.13380453 -9.31375208 55.13965023 -12.87734985 55.15008545 C-13.90742586 55.14202904 -14.93750186 55.13397264 -15.99879229 55.1256721 C-23.33169973 55.17582266 -29.94980547 56.0499915 -35.953125 60.51757812 C-43.43463979 70.22332704 -46.54833014 79.84385717 -46.58447266 91.97485352 C-46.59954109 93.1618837 -46.59954109 93.1618837 -46.61491394 94.37289429 C-46.64547353 96.95366781 -46.66270429 99.53433897 -46.6796875 102.11523438 C-46.69842113 103.91842005 -46.71799614 105.72159716 -46.7383728 107.52476501 C-46.78946827 112.24448574 -46.82921416 116.96423482 -46.86651611 121.68408203 C-46.90669817 126.51081221 -46.95772538 131.33742675 -47.0078125 136.1640625 C-47.10430399 145.61515288 -47.18879358 155.06630889 -47.265625 164.51757812 C-59.73606186 162.30595493 -69.64295098 153.24336335 -78.265625 144.51757812 C-78.93207031 143.86144531 -79.59851563 143.2053125 -80.28515625 142.52929688 C-94.39524764 127.65477616 -101.06131258 106.16757528 -101.640625 86.01757812 C-100.90702377 60.50101361 -90.26740572 38.69837956 -72.09375 20.97070312 C-51.02575697 2.69625613 -26.8379179 -0.08979116 0 0 Z " fill="#030303" transform="translate(101.265625,-0.517578125)"/>
<path d="M0 0 C0.66 0 1.32 0 2 0 C1.67 0.99 1.34 1.98 1 3 C0.8796689 5.8440683 0.81461196 8.66544947 0.79467773 11.51049805 C0.77982834 12.81325684 0.77982834 12.81325684 0.76467896 14.14233398 C0.73307056 17.01543443 0.70830908 19.88855142 0.68359375 22.76171875 C0.66302366 24.75283744 0.64202717 26.74395177 0.62062073 28.73506165 C0.56540579 33.97767608 0.51599392 39.22032988 0.46777344 44.4630127 C0.41755423 49.81196602 0.36187035 55.16086211 0.30664062 60.50976562 C0.1990661 71.00646154 0.09761952 81.50320712 0 92 C-0.33 92 -0.66 92 -1 92 C-1.33 63.62 -1.66 35.24 -2 6 C-3.32 7.32 -4.64 8.64 -6 10 C-6.66 9.67 -7.32 9.34 -8 9 C-6.71520959 7.49410612 -5.42195918 5.99542625 -4.125 4.5 C-3.04605469 3.24703125 -3.04605469 3.24703125 -1.9453125 1.96875 C-1.30335938 1.3190625 -0.66140625 0.669375 0 0 Z " fill="#303030" transform="translate(195,200)"/>
<path d="M0 0 C0.66 0 1.32 0 2 0 C0.34908222 4.29238623 -2.73754566 6.8793915 -6 10 C-6.66 9.67 -7.32 9.34 -8 9 C-6.71520959 7.49410612 -5.42195918 5.99542625 -4.125 4.5 C-3.04605469 3.24703125 -3.04605469 3.24703125 -1.9453125 1.96875 C-1.30335938 1.3190625 -0.66140625 0.669375 0 0 Z " fill="#898989" transform="translate(195,200)"/>
</svg>
