<?xml version="1.0" encoding="UTF-8"?>
<svg version="1.1" xmlns="http://www.w3.org/2000/svg" width="142" height="119">
<path d="M0 0 C1.19109375 -0.02126953 1.19109375 -0.02126953 2.40625 -0.04296875 C4.5 0.1875 4.5 0.1875 6.5 2.1875 C7.84787207 13.05698178 5.26984974 23.33580767 2.75 33.8125 C2.18549682 36.23662956 1.62638382 38.66196599 1.06726074 41.08734131 C0.7022999 42.66804414 0.3355469 44.24833437 -0.03308105 45.82818604 C-1.29976302 51.26178555 -2.45842617 56.70598661 -3.5 62.1875 C-5.35594913 71.81102053 -7.49726754 81.37124521 -9.625 90.9375 C-9.88966064 92.12956055 -9.88966064 92.12956055 -10.15966797 93.34570312 C-10.67006694 95.64226064 -11.18227575 97.93840543 -11.6953125 100.234375 C-11.92324997 101.25830353 -11.92324997 101.25830353 -12.15579224 102.30291748 C-15.11883791 115.50987851 -15.11883791 115.50987851 -16.625 118.1875 C-20.06420965 120.02174515 -22.83064879 120.19523781 -26.5 119.1875 C-30.17857579 116.91966601 -33.47220069 114.24965886 -36.81884766 111.52246094 C-39.73161271 109.20950722 -42.77420618 107.0811715 -45.8125 104.9375 C-46.93374337 104.14083554 -48.05484108 103.34396602 -49.17578125 102.546875 C-49.71283691 102.16595703 -50.24989258 101.78503906 -50.80322266 101.39257812 C-53.70664935 99.33051854 -56.60289775 97.25843241 -59.5 95.1875 C-68.68618128 102.59432706 -68.68618128 102.59432706 -76.953125 110.92578125 C-79.11694003 112.69071119 -80.78251962 112.2766656 -83.5 112.1875 C-83.19164958 107.66637367 -82.87758319 103.14566171 -82.5625 98.625 C-82.47548828 97.34818359 -82.38847656 96.07136719 -82.29882812 94.75585938 C-82.21181641 93.51513672 -82.12480469 92.27441406 -82.03515625 90.99609375 C-81.956604 89.85970459 -81.87805176 88.72331543 -81.79711914 87.55249023 C-80.93067856 77.73971251 -80.93067856 77.73971251 -79.07421875 75.359375 C-78.45160156 74.89015625 -77.82898438 74.4209375 -77.1875 73.9375 C-73.53488105 71.02324588 -70.04899083 67.99063223 -66.625 64.8125 C-65.58904771 63.86012634 -64.55259005 62.9083021 -63.515625 61.95703125 C-61.63006976 60.22541111 -59.74466896 58.4936234 -57.859375 56.76171875 C-52.94360268 52.28651093 -47.89538708 48.0726458 -42.67578125 43.95703125 C-40.09972974 41.86196601 -37.81615844 39.56460997 -35.5 37.1875 C-33.49095461 35.40581572 -31.45915645 33.65227148 -29.42578125 31.8984375 C-27.76770147 30.4253362 -26.21945669 28.91388071 -24.6875 27.3125 C-22.5 25.1875 -22.5 25.1875 -19.5 24.1875 C-19.5 23.5275 -19.5 22.8675 -19.5 22.1875 C-25.30871337 25.44797672 -30.97026814 28.91784295 -36.625 32.4375 C-38.50769748 33.60695603 -40.39050958 34.77622754 -42.2734375 35.9453125 C-43.17674805 36.50637695 -44.08005859 37.06744141 -45.01074219 37.64550781 C-47.05787833 38.91362393 -49.10839233 40.17548046 -51.1640625 41.4296875 C-57.98381599 45.59060039 -64.69974652 49.89245782 -71.39526367 54.24902344 C-75.9954251 57.23512071 -80.63017195 60.13779172 -85.36328125 62.91015625 C-88.14810308 64.57494005 -90.83744697 66.37615291 -93.515625 68.20703125 C-98.29820634 70.57007833 -102.18420916 70.30176467 -107.1855011 68.64932251 C-107.87323105 68.40668671 -108.560961 68.1640509 -109.26953125 67.9140625 C-109.99113937 67.67086273 -110.7127475 67.42766296 -111.45622253 67.17709351 C-113.74615862 66.40147124 -116.02903936 65.60695652 -118.3125 64.8125 C-119.86613816 64.28528313 -121.42017137 63.75922892 -122.97460938 63.234375 C-124.44826579 62.7327954 -125.9215858 62.2302261 -127.39453125 61.7265625 C-128.44130791 61.36868149 -128.44130791 61.36868149 -129.50923157 61.00357056 C-134.38105479 59.30644521 -134.38105479 59.30644521 -135.5 58.1875 C-135.875 55.375 -135.875 55.375 -135.5 52.1875 C-132.0081193 48.8123104 -128.59556541 47.27630076 -124.0234375 45.765625 C-116.96744815 43.35913032 -110.05040965 40.69416829 -103.125 37.9375 C-94.07107528 34.35570093 -84.9990078 30.8369442 -75.875 27.4375 C-64.15806818 23.07122628 -52.50354615 18.56094423 -40.875 13.96484375 C-30.5127916 9.87747116 -20.13856997 5.90774638 -9.60546875 2.28125 C-3.20214534 0.02599144 -3.20214534 0.02599144 0 0 Z " fill="#070707" transform="translate(135.5,-0.1875)"/>
<path d="M0 0 C0.33 0.66 0.66 1.32 1 2 C0.34 2 -0.32 2 -1 2 C-2.61949011 4.57213134 -3.04408751 5.67669159 -2.625 8.75 C-2.315625 9.86375 -2.315625 9.86375 -2 11 C-2.99 10.67 -3.98 10.34 -5 10 C-5.3125 7.25 -5.3125 7.25 -5 4 C-2.5 1.625 -2.5 1.625 0 0 Z " fill="#363636" transform="translate(5,48)"/>
</svg>
