<?xml version="1.0" encoding="UTF-8"?>
<svg version="1.1" xmlns="http://www.w3.org/2000/svg" width="450" height="512">
<path d="M0 0 C27.72 0 55.44 0 84 0 C85.3518785 2.70375699 85.31697694 5.34600262 85.54370117 8.32104492 C87.78565253 36.75535582 98.23616237 62.49108242 117 84 C117.57234375 84.70511719 118.1446875 85.41023438 118.734375 86.13671875 C139.09025367 110.80610504 171.12035949 123.25394525 202 127 C207.94 127.495 207.94 127.495 214 128 C214 155.72 214 183.44 214 212 C169.42677325 212 127.06609698 198.85612148 90.64379883 173.15405273 C89.11232887 172.0788621 87.55694267 171.03796178 86 170 C85.99641747 171.47843022 85.99641747 171.47843022 85.99276257 172.98672771 C85.93376908 197.05337848 85.85776516 221.11993073 85.76428509 245.18647289 C85.7194646 256.82523374 85.68001881 268.46396492 85.65356445 280.1027832 C85.63047243 290.25615074 85.59695104 300.40942331 85.55129844 310.56271535 C85.52751623 315.93064546 85.50868978 321.2984824 85.50238609 326.66646385 C85.49626655 331.73657052 85.47602442 336.80643927 85.44572449 341.87645721 C85.43705281 343.72044779 85.43319858 345.5644696 85.43499184 347.40847969 C85.44602883 364.02008568 84.1467032 380.84850615 79.25 396.8125 C78.86593994 398.10438232 78.86593994 398.10438232 78.47412109 399.42236328 C75.96284645 407.5949804 72.75559529 415.32874143 69 423 C68.70399902 423.62036133 68.40799805 424.24072266 68.10302734 424.87988281 C50.71704582 461.00440197 17.46194852 489.30608667 -20.05859375 502.67993164 C-61.93343615 517.08935182 -106.89587074 515.15913629 -147 496 C-184.26732687 477.68977528 -213.6260479 444.92639725 -227.45996094 405.78369141 C-236.7361222 378.16860287 -238.71753418 349.61877825 -233 321 C-232.86609863 320.31035156 -232.73219727 319.62070312 -232.59423828 318.91015625 C-226.79791513 290.07608327 -211.62402065 264.31843986 -191.32080078 243.37207031 C-190.21391497 242.22221851 -189.13296185 241.04747922 -188.05859375 239.8671875 C-177.0940084 228.14219466 -163.20737494 219.24829179 -149 212 C-148.39510742 211.68337402 -147.79021484 211.36674805 -147.16699219 211.04052734 C-124.99170186 199.51972404 -100.31404375 194.79927047 -75.5 194.875 C-74.23285156 194.87113281 -72.96570313 194.86726562 -71.66015625 194.86328125 C-53.1174235 194.8825765 -53.1174235 194.8825765 -51 197 C-50.90488734 199.64738089 -50.87444365 202.26859001 -50.88647461 204.91625977 C-50.88632858 205.74545929 -50.88618256 206.57465881 -50.8860321 207.4289856 C-50.88673149 210.18315198 -50.89452507 212.93725161 -50.90234375 215.69140625 C-50.90420784 217.59569766 -50.90563178 219.49998955 -50.90663147 221.40428162 C-50.91045737 226.42667963 -50.92028827 231.44904892 -50.93133545 236.47143555 C-50.94154802 241.5922812 -50.94612876 246.71313148 -50.95117188 251.83398438 C-50.96191047 261.88933557 -50.97898776 271.9446654 -51 282 C-51.74765625 281.86287598 -52.4953125 281.72575195 -53.265625 281.58447266 C-54.25046875 281.4044873 -55.2353125 281.22450195 -56.25 281.0390625 C-57.22453125 280.86068848 -58.1990625 280.68231445 -59.203125 280.49853516 C-79.03466308 276.96361889 -99.1163318 279.77945608 -116.25 290.8125 C-132.68476271 302.43129414 -144.06496417 317.89955494 -148.46875 337.84765625 C-152.03925149 359.03438201 -148.30121383 379.21511253 -136 397 C-133.18894788 400.54213161 -130.18800874 403.7956982 -127 407 C-126.33613281 407.69867188 -125.67226562 408.39734375 -124.98828125 409.1171875 C-118.36889419 415.59788264 -110.36512755 419.27371591 -102 423 C-101.20851562 423.36222656 -100.41703125 423.72445313 -99.6015625 424.09765625 C-81.48297461 431.22334595 -60.33755997 428.07303382 -42.984375 420.72265625 C-24.65716517 412.2404476 -11.82821097 396.96081284 -4.625 378.3125 C-1.27345029 367.88874162 -0.7048676 357.82947171 -0.7215271 346.9342804 C-0.71651571 345.43160602 -0.71063746 343.92893433 -0.70397437 342.42626637 C-0.68826231 338.32373548 -0.68474857 334.22127323 -0.68332577 330.11871588 C-0.67961627 325.68462868 -0.66445313 321.25057846 -0.65071106 316.81651306 C-0.62848294 309.14302779 -0.61344296 301.46955576 -0.60334396 293.7960453 C-0.5887322 282.70156632 -0.5631884 271.60713347 -0.53501268 260.51268163 C-0.48959002 242.51082668 -0.45295652 224.50896508 -0.421875 206.50708008 C-0.39167091 189.0243208 -0.35731209 171.54157778 -0.31738281 154.05883789 C-0.31492126 152.98043545 -0.31245972 151.90203301 -0.30992357 150.79095171 C-0.29754861 145.38069473 -0.28509215 139.97043795 -0.27259517 134.56018126 C-0.16909515 89.70680676 -0.08149325 44.85342094 0 0 Z " fill="#020202" transform="translate(236,0)"/>
</svg>
