<?xml version="1.0" encoding="UTF-8"?>
<svg version="1.1" xmlns="http://www.w3.org/2000/svg" width="428" height="428">
<path d="M0 0 C4.14982912 3.47427555 7.33792705 6.72065769 7.890625 12.30078125 C7.90609375 13.04714844 7.9215625 13.79351563 7.9375 14.5625 C7.96328125 15.30113281 7.9890625 16.03976563 8.015625 16.80078125 C7.07560595 23.81735203 2.29826869 27.98301346 -2.5625 32.625 C-3.86193597 33.88016661 -5.15881652 35.13798417 -6.453125 36.3984375 C-7.02579102 36.94677246 -7.59845703 37.49510742 -8.18847656 38.06005859 C-10.03145893 39.96023696 -11.75232376 41.9031586 -13.4777832 43.90869141 C-17.61925465 48.67312317 -22.05104915 53.11448556 -26.52734375 57.5625 C-27.38308487 58.41682617 -28.23882599 59.27115234 -29.12049866 60.15136719 C-31.82797381 62.85328862 -34.53892254 65.55169359 -37.25 68.25 C-39.09723675 70.09221577 -40.94424427 71.93466143 -42.79101562 73.77734375 C-47.29553003 78.27089061 -51.80289405 82.7615632 -56.3125 87.25 C-55.04733047 87.32072723 -53.78216095 87.39145447 -52.47865295 87.46432495 C-40.48997835 88.13521659 -28.50162578 88.81162621 -16.51355839 89.49328423 C-10.35204329 89.84346274 -4.19043496 90.19177204 1.97143555 90.53564453 C7.93044016 90.86826754 13.88913513 91.206016 19.84765816 91.54715347 C22.10824068 91.67570476 24.36892478 91.80248382 26.62971306 91.92736435 C77.62969118 94.74958721 77.62969118 94.74958721 96.3984375 114.53125 C109.59685762 130.20718925 110.78566083 150.21639246 113.25 169.75 C113.5565918 172.12868939 113.86339664 174.50735133 114.17041016 176.88598633 C116.35708667 193.97757139 118.34720048 211.06901768 119.6875 228.25 C119.75662598 229.11302734 119.82575195 229.97605469 119.89697266 230.86523438 C121.53562343 252.1201346 120.74802475 273.43960919 119.4375 294.6875 C119.33813141 296.33339615 119.33813141 296.33339615 119.23675537 298.01254272 C118.74692133 306.09349818 118.22331751 314.17197782 117.6875 322.25 C117.61253296 323.39577515 117.53756592 324.54155029 117.46032715 325.7220459 C117.01833319 332.44705893 116.5506014 339.16947773 116.04699707 345.89016724 C115.89285884 347.97538622 115.74480866 350.06106582 115.60339355 352.14718628 C114.22238815 372.2722498 110.64252326 389.30298269 95.25 403.6875 C76.63601311 419.01097275 55.20422029 419.35796576 32.21484375 420.50390625 C30.15961044 420.61033084 28.10439947 420.71718748 26.04920959 420.82444763 C21.75555778 421.04730864 17.46173242 421.26628667 13.16772461 421.48217773 C7.76209412 421.75407675 2.35689667 422.03365448 -3.04820633 422.31582355 C-63.73139358 425.47912922 -63.73139358 425.47912922 -91.9375 425.4375 C-93.14974243 425.43659363 -93.14974243 425.43659363 -94.38647461 425.43566895 C-130.32290686 425.36554073 -166.23042143 423.33706952 -202.10403442 421.38035583 C-204.47327384 421.25145407 -206.8425864 421.12397234 -209.21191406 420.9967041 C-269.19411261 417.75950166 -269.19411261 417.75950166 -287.1875 398.3125 C-297.07411744 386.09254463 -300.65276992 373.04874551 -301.7265625 357.53515625 C-301.82664108 356.25751404 -301.92671967 354.97987183 -302.02983093 353.66351318 C-302.29619529 350.25073423 -302.54365555 346.83685307 -302.78616714 343.42230606 C-302.98987007 340.58238296 -303.20387278 337.74327011 -303.41759205 334.90408611 C-305.03594904 313.3727957 -306.58268094 291.83218718 -307.3125 270.25 C-307.35246094 269.1170752 -307.39242188 267.98415039 -307.43359375 266.81689453 C-308.16487842 242.47608426 -306.15035004 218.07361775 -304.54681396 193.80078125 C-304.38923581 191.41285035 -304.23305003 189.0248272 -304.07818604 186.63671875 C-303.61379647 179.47754986 -303.12963529 172.3201938 -302.61706543 165.16430664 C-302.45742074 162.91253561 -302.30260782 160.66041608 -302.1529541 158.40795898 C-300.72812946 137.17974433 -297.01955662 122.57581738 -281.3125 107.25 C-272.07734191 99.55403492 -261.83272526 94.62302749 -249.81396484 93.78515625 C-248.73448578 93.70837646 -247.65500671 93.63159668 -246.54281616 93.55249023 C-244.80072372 93.43369507 -244.80072372 93.43369507 -243.0234375 93.3125 C-241.81039948 93.22750244 -240.59736145 93.14250488 -239.3475647 93.05493164 C-236.77380841 92.87525933 -234.19994199 92.6971588 -231.62597656 92.52050781 C-227.75038621 92.25431924 -223.87517696 91.98307071 -220 91.7109375 C-212.77196318 91.20634568 -205.54278974 90.72116018 -198.3125 90.25 C-196.93782059 90.1593779 -196.93782059 90.1593779 -195.53536987 90.06692505 C-182.72542783 89.24019149 -169.95875519 89.12839938 -157.125 89.1875 C-155.18815222 89.19253415 -153.25130315 89.19709361 -151.31445312 89.20117188 C-146.64710244 89.2120049 -141.97981628 89.22915947 -137.3125 89.25 C-141.63043459 84.07032001 -146.1832798 79.29670869 -151.01171875 74.59375 C-152.48286248 73.14497852 -153.95355221 71.69574592 -155.42382812 70.24609375 C-157.71687478 67.9901944 -160.01279187 65.73753571 -162.31665039 63.49267578 C-164.55755895 61.30636538 -166.78546161 59.10746479 -169.01171875 56.90625 C-169.69924728 56.24250366 -170.38677582 55.57875732 -171.09513855 54.89489746 C-176.02837464 49.98882348 -178.85005018 45.88353433 -179.75 38.8125 C-179.04999568 33.11246482 -176.99798174 28.93548174 -172.9375 24.875 C-167.87054225 21.73831187 -163.59674839 20.68151827 -157.72167969 21.59423828 C-150.52044428 23.55436377 -144.8430562 30.48219817 -139.8125 35.6875 C-136.12919009 39.47549346 -132.44913517 43.18621934 -128.4375 46.62890625 C-122.7730954 51.50834305 -117.61957717 56.89786541 -112.37890625 62.22265625 C-108.6399419 65.99798006 -104.87883296 69.7450255 -100.96875 73.34375 C-100.35837891 73.90771484 -99.74800781 74.47167969 -99.11914062 75.05273438 C-97.1180098 76.61827369 -97.1180098 76.61827369 -93.3125 76.25 C-91.55462064 75.01570766 -91.55462064 75.01570766 -90 73.25 C-89.46761719 72.693125 -88.93523437 72.13625 -88.38671875 71.5625 C-87.21902011 70.26065896 -86.05887871 68.95162202 -84.92626953 67.61914062 C-79.08400316 60.78883101 -72.67502018 54.54733478 -66.28271484 48.24072266 C-59.35248866 41.43798505 -59.35248866 41.43798505 -52.8203125 34.2578125 C-48.10394526 28.73697181 -42.85216195 23.72110449 -37.6875 18.625 C-35.65063796 16.61498925 -33.61730225 14.60150214 -31.5859375 12.5859375 C-30.24668213 11.26408447 -30.24668213 11.26408447 -28.88037109 9.91552734 C-27.02518356 7.98978694 -25.32712975 6.09325921 -23.64306641 4.02978516 C-17.34068428 -3.48738674 -8.50132408 -4.49126555 0 0 Z M-21.04248047 205.6394043 C-21.57980301 206.17628876 -22.11712555 206.71317322 -22.67073059 207.2663269 C-24.43092871 209.02860175 -26.18028274 210.80123451 -27.9296875 212.57421875 C-29.15356825 213.80369941 -30.37811652 215.03251592 -31.603302 216.26069641 C-34.81569151 219.4845035 -38.0189668 222.71721956 -41.22039795 225.9519043 C-44.49301485 229.25528861 -47.77421204 232.55012603 -51.0546875 235.84570312 C-57.48236249 242.30548778 -63.90043683 248.77472119 -70.3125 255.25 C-73.23935574 253.93119522 -75.28021334 252.51934555 -77.51708984 250.22485352 C-78.11806488 249.61404434 -78.71903992 249.00323517 -79.33822632 248.37391663 C-79.97684601 247.7155632 -80.6154657 247.05720978 -81.2734375 246.37890625 C-82.64571153 244.98620809 -84.01811128 243.59363381 -85.390625 242.20117188 C-87.54134116 240.00699947 -89.68952719 237.81042187 -91.83496094 235.61108398 C-93.91210675 233.48551597 -95.99849098 231.36935208 -98.0859375 229.25390625 C-99.03779434 228.26941246 -99.03779434 228.26941246 -100.00888062 227.26502991 C-104.11110336 223.11766985 -107.92737133 219.82278854 -113.875 218.81640625 C-114.679375 218.81511719 -115.48375 218.81382812 -116.3125 218.8125 C-117.116875 218.79316406 -117.92125 218.77382812 -118.75 218.75390625 C-125.10567433 219.9843493 -129.77595586 225.41187054 -134.18823242 229.81933594 C-134.8475325 230.4703125 -135.50683258 231.12128906 -136.18611145 231.79199219 C-138.35216172 233.93405264 -140.51057512 236.08359832 -142.66796875 238.234375 C-144.17670995 239.73414356 -145.68552558 241.23383724 -147.19441223 242.73345947 C-150.35102223 245.87360833 -153.50323721 249.01809919 -156.65307617 252.16503906 C-160.6829557 256.18952901 -164.72874932 260.19760477 -168.77868176 264.20190048 C-171.89873389 267.29216688 -175.00742992 270.39366895 -178.11312294 273.49835968 C-179.59973207 274.98077188 -181.09044942 276.45907639 -182.58537865 277.93309784 C-184.67730047 279.99806833 -186.75272907 282.07837202 -188.82495117 284.16308594 C-189.44058929 284.76388977 -190.05622742 285.3646936 -190.69052124 285.98370361 C-194.99982092 290.36712822 -198.11167004 294.92095088 -198.40800762 301.30874252 C-198.03075059 306.24211313 -196.56294017 309.58283673 -193.3125 313.25 C-189.82308271 315.64571933 -186.46820647 317.03330504 -182.3125 317.8125 C-172.60156857 315.99170036 -165.58014843 306.90450017 -158.9375 300.16796875 C-157.76132053 298.98618487 -156.58447015 297.80506839 -155.40698242 296.62458801 C-152.32940953 293.53563291 -149.26095849 290.43777237 -146.19439697 287.33789062 C-143.05568982 284.16833897 -139.90833245 281.00740212 -136.76171875 277.84570312 C-130.60353934 271.65547661 -124.45498146 265.45580354 -118.3125 259.25 C-115.4244626 260.55620454 -113.38278233 261.93909821 -111.16796875 264.19921875 C-110.58055908 264.79323486 -109.99314941 265.38725098 -109.38793945 265.99926758 C-108.76491943 266.63888428 -108.14189941 267.27850098 -107.5 267.9375 C-106.84926514 268.59580811 -106.19853027 269.25411621 -105.52807617 269.93237305 C-102.74843319 272.74468242 -99.98077185 275.56867961 -97.21191406 278.39160156 C-95.18702306 280.45263434 -93.15618661 282.50767447 -91.125 284.5625 C-90.50197998 285.2021167 -89.87895996 285.8417334 -89.23706055 286.50073242 C-88.64965088 287.09474854 -88.06224121 287.68876465 -87.45703125 288.30078125 C-86.94503174 288.82325439 -86.43303223 289.34572754 -85.90551758 289.8840332 C-82.45026937 292.84680926 -79.4337418 293.56202743 -74.9375 293.625 C-74.02226562 293.65335937 -73.10703125 293.68171875 -72.1640625 293.7109375 C-65.6144295 292.6522297 -60.94291548 287.17764308 -56.43676758 282.66479492 C-55.7774675 282.01221207 -55.11816742 281.35962921 -54.43888855 280.68727112 C-52.27296908 278.54026495 -50.11459074 276.38587372 -47.95703125 274.23046875 C-46.44836302 272.72823139 -44.93954625 271.22614319 -43.43058777 269.72419739 C-40.27413095 266.57969545 -37.12181516 263.43110726 -33.97192383 260.2800293 C-29.94034199 256.248244 -25.89516424 252.23040595 -21.84631824 248.21596813 C-18.72790596 245.11981532 -15.61864884 242.01459218 -12.51187706 238.90676308 C-11.02438514 237.42162708 -9.53365853 235.93972343 -8.03962135 234.4611721 C-5.95011424 232.39131101 -3.87372058 230.309098 -1.80004883 228.22338867 C-1.18441071 227.61898956 -0.56877258 227.01459045 0.06552124 226.39187622 C4.42285906 221.97013987 7.26372694 217.82180147 8.015625 211.484375 C7.97695313 210.25460938 7.97695313 210.25460938 7.9375 209 C7.91429687 207.75476563 7.91429687 207.75476563 7.890625 206.484375 C7.75803099 204.07986076 7.75803099 204.07986076 6.6875 201.25 C2.05239109 197.87023309 -1.30191605 196.80594388 -7.00390625 196.81640625 C-12.92122031 197.92777996 -16.95479583 201.4622385 -21.04248047 205.6394043 Z " fill="#010101" transform="translate(307.3125,2.75)"/>
<path d="M0 0 C0.66 0.33 1.32 0.66 2 1 C-7.24 10.24 -16.48 19.48 -26 29 C-26.66 28.67 -27.32 28.34 -28 28 C-27.42032471 27.42556152 -26.84064941 26.85112305 -26.2434082 26.25927734 C-23.59709906 23.6338636 -20.95477423 21.00447428 -18.3125 18.375 C-16.94448242 17.01955078 -16.94448242 17.01955078 -15.54882812 15.63671875 C-10.09568821 10.24045503 -10.09568821 10.24045503 -5.04296875 4.4765625 C-3 2 -3 2 0 0 Z " fill="#3C3C3C" transform="translate(289,2)"/>
<path d="M0 0 C0.66 0.33 1.32 0.66 2 1 C-3.61 6.61 -9.22 12.22 -15 18 C-15 13.78193333 -13.14807199 12.61332709 -10.3125 9.5625 C-9.44238281 8.61503906 -8.57226562 7.66757813 -7.67578125 6.69140625 C-5.23784139 4.23923024 -2.74711696 2.0937486 0 0 Z " fill="#474747" transform="translate(31,106)"/>
</svg>
