<?xml version="1.0" encoding="UTF-8"?>
<svg version="1.1" xmlns="http://www.w3.org/2000/svg" width="502" height="512">
<path d="M0 0 C19.51462762 -0.35088196 39.02861275 -0.61514224 58.54574394 -0.77718258 C67.60871894 -0.85443265 76.66973081 -0.95967909 85.73144531 -1.1315918 C93.63269002 -1.281417 101.53251307 -1.37794352 109.43513882 -1.41132742 C113.61792212 -1.43083674 117.79663985 -1.47643311 121.97811508 -1.58595085 C147.4184625 -2.22705075 147.4184625 -2.22705075 153.35175514 1.46235466 C157.37955057 5.38351381 159.14010275 9.78174171 161 15 C162.7202264 17.80216843 162.7202264 17.80216843 164.43359375 20.05859375 C164.93133301 20.78522217 165.42907227 21.51185059 165.94189453 22.26049805 C166.43544434 22.97890869 166.92899414 23.69731934 167.4375 24.4375 C168.25516846 25.63016479 168.25516846 25.63016479 169.08935547 26.84692383 C170.72508974 29.23207254 172.3622806 31.61621402 174 34 C174.48645996 34.70833984 174.97291992 35.41667969 175.47412109 36.14648438 C178.19993316 40.11507076 180.92800524 44.08209746 183.65722656 48.04833984 C185.93908519 51.36491764 188.21945755 54.6825171 190.5 58 C191.41665976 59.33333808 192.33332642 60.66667142 193.25 62 C209.75 86 226.25 110 242.75 134 C243.20358887 134.6597583 243.65717773 135.3195166 244.12451172 135.99926758 C245.04283361 137.33502333 245.9611278 138.67079812 246.87939453 140.0065918 C249.14551157 143.30301745 251.41208059 146.59913027 253.6796875 149.89453125 C254.57815324 151.20050141 255.47659066 152.50649105 256.375 153.8125 C256.81779297 154.45606445 257.26058594 155.09962891 257.71679688 155.76269531 C260.3099035 159.53398234 262.89607713 163.30990792 265.4765625 167.08984375 C266.06260254 167.94795654 266.64864258 168.80606934 267.25244141 169.69018555 C268.3935481 171.36167251 269.53388245 173.03368709 270.67333984 174.70629883 C271.1936377 175.46837646 271.71393555 176.2304541 272.25 177.015625 C272.70890625 177.68883789 273.1678125 178.36205078 273.640625 179.05566406 C274.60964388 180.44166736 275.62588357 181.79514998 276.671875 183.12402344 C278 185 278 185 278 187 C286.45304586 178.63950573 294.40960096 169.88372205 301.85546875 160.61328125 C303.99874956 158.00152377 306.2238033 155.49634698 308.5 153 C311.59555196 149.60401318 314.55151207 146.13828469 317.4375 142.5625 C321.29708603 137.79003797 325.37199991 133.26890891 329.52734375 128.75390625 C332.74709519 125.16792716 335.75905176 121.43298508 338.78515625 117.68359375 C341.66480887 114.19449084 344.70693876 110.87003079 347.75390625 107.52734375 C350.06187598 104.93037607 352.25555863 102.26595987 354.4375 99.5625 C358.29708603 94.79003797 362.37199991 90.26890891 366.52734375 85.75390625 C369.74709519 82.16792716 372.75905176 78.43298508 375.78515625 74.68359375 C378.66480887 71.19449084 381.70693876 67.87003079 384.75390625 64.52734375 C387.06187598 61.93037607 389.25555863 59.26595987 391.4375 56.5625 C395.29708603 51.79003797 399.37199991 47.26890891 403.52734375 42.75390625 C406.74709519 39.16792716 409.75905176 35.43298508 412.78515625 31.68359375 C414.95632827 29.05291443 417.20241357 26.52057576 419.5 24 C423.38483919 19.73615211 427.05266533 15.33288801 430.6640625 10.8359375 C431.43492187 9.90007813 432.20578125 8.96421875 433 8 C433.4584581 7.3401712 433.9169162 6.68034241 434.38926697 6.0005188 C438.57720581 0.42382159 438.57720581 0.42382159 442.36340332 -0.70401001 C445.11772717 -0.92352 447.76694226 -0.90145548 450.52734375 -0.78125 C451.51626114 -0.76993042 452.50517853 -0.75861084 453.52406311 -0.74694824 C456.66389726 -0.70237879 459.79906109 -0.60205523 462.9375 -0.5 C465.07350147 -0.45984777 467.20957496 -0.42335006 469.34570312 -0.390625 C474.56537917 -0.30271031 479.78235597 -0.16907634 485 0 C482.89483491 3.59958622 480.72322001 6.57260652 477.875 9.625 C474.64822007 13.14370187 471.55724384 16.71933669 468.5625 20.4375 C464.70291397 25.20996203 460.62800009 29.73109109 456.47265625 34.24609375 C453.25290481 37.83207284 450.24094824 41.56701492 447.21484375 45.31640625 C444.33519113 48.80550916 441.29306124 52.12996921 438.24609375 55.47265625 C435.93812402 58.06962393 433.74444137 60.73404013 431.5625 63.4375 C427.70291397 68.20996203 423.62800009 72.73109109 419.47265625 77.24609375 C416.25290481 80.83207284 413.24094824 84.56701492 410.21484375 88.31640625 C407.33519113 91.80550916 404.29306124 95.12996921 401.24609375 98.47265625 C398.93812402 101.06962393 396.74444137 103.73404013 394.5625 106.4375 C390.70291397 111.20996203 386.62800009 115.73109109 382.47265625 120.24609375 C379.25290481 123.83207284 376.24094824 127.56701492 373.21484375 131.31640625 C370.33519113 134.80550916 367.29306124 138.12996921 364.24609375 141.47265625 C361.93812402 144.06962393 359.74444137 146.73404013 357.5625 149.4375 C353.70291397 154.20996203 349.62800009 158.73109109 345.47265625 163.24609375 C342.25290481 166.83207284 339.24094824 170.56701492 336.21484375 174.31640625 C333.33519113 177.80550916 330.29306124 181.12996921 327.24609375 184.47265625 C324.93812402 187.06962393 322.74444137 189.73404013 320.5625 192.4375 C317.43231451 196.3119254 314.19009029 200.02675843 310.8125 203.6875 C306.90345267 207.93195701 303.32373589 212.2846186 300 217 C305.76022756 225.71461361 311.64539975 234.3369382 317.57666016 242.93554688 C319.88797041 246.28793787 322.19375882 249.64412078 324.5 253 C325.41663902 254.33335234 326.33330572 255.66668565 327.25 257 C352 293 352 293 376.75 329 C377.20358887 329.6597583 377.65717773 330.3195166 378.12451172 330.99926758 C379.04283361 332.33502333 379.9611278 333.67079812 380.87939453 335.0065918 C383.14551157 338.30301745 385.41208059 341.59913027 387.6796875 344.89453125 C393.18518464 352.89670733 398.67634388 360.90854995 404.15917969 368.92626953 C408.98034499 375.97489904 413.81630573 383.013269 418.65722656 390.04833984 C420.93908519 393.36491764 423.21945755 396.6825171 425.5 400 C426.41665976 401.33333808 427.33332642 402.66667142 428.25 404 C453 440 453 440 477.75 476 C478.2042334 476.66064453 478.6584668 477.32128906 479.12646484 478.00195312 C480.03846998 479.32862395 480.95025566 480.65544567 481.86181641 481.98242188 C484.22298102 485.41899349 486.58847875 488.85246371 488.9609375 492.28125 C489.44884766 492.98765625 489.93675781 493.6940625 490.43945312 494.421875 C491.36119257 495.75620258 492.28425639 497.08961682 493.20898438 498.421875 C495.43511663 501.64756436 497.58662887 504.90402758 499.65673828 508.23242188 C500.09817169 508.94136597 500.5396051 509.65031006 500.99441528 510.3807373 C501.32625824 510.91509399 501.6581012 511.44945068 502 512 C482.56354741 512.21033908 463.12732608 512.36899631 443.68997097 512.46630955 C434.66459014 512.51269719 425.63991687 512.57592618 416.61499023 512.67895508 C408.7478429 512.76872383 400.881208 512.82673851 393.01356274 512.84679645 C388.84822938 512.85852015 384.68436181 512.88602261 380.51949883 512.95157051 C376.59644537 513.01281064 372.67545635 513.03147663 368.75197029 513.01796913 C367.31478259 513.02043875 365.87752364 513.03825998 364.44075012 513.07284927 C353.59771484 513.32101293 353.59771484 513.32101293 349.62331486 510.03492355 C347.8329555 507.76580597 346.39170572 505.52836144 345 503 C344.29496338 501.99340332 343.58992676 500.98680664 342.86352539 499.94970703 C342.28078857 499.06138184 341.69805176 498.17305664 341.09765625 497.2578125 C340.43443359 496.25363281 339.77121094 495.24945313 339.08789062 494.21484375 C338.41951172 493.19519531 337.75113281 492.17554688 337.0625 491.125 C332.509551 484.19179929 327.86486118 477.37304661 322.95336914 470.68847656 C319.76375724 466.29852453 316.72852563 461.80606448 313.6875 457.3125 C312.37394153 455.37874075 311.06013783 453.44514805 309.74609375 451.51171875 C309.10913574 450.57376465 308.47217773 449.63581055 307.81591797 448.66943359 C305.3059189 444.97968772 302.78064593 441.30060496 300.25 437.625 C299.81196045 436.98860596 299.3739209 436.35221191 298.92260742 435.6965332 C298.0520461 434.43204248 297.18136067 433.16763718 296.31054688 431.90332031 C294.0384494 428.60353046 291.76940398 425.30164258 289.5 422 C286.77415956 418.03465906 284.04802677 414.069521 281.3203125 410.10546875 C275.81481536 402.10329267 270.32365612 394.09145005 264.84082031 386.07373047 C260.01965501 379.02510096 255.18369427 371.986731 250.34277344 364.95166016 C248.06091481 361.63508236 245.78054245 358.3174829 243.5 355 C242.58334024 353.66666192 241.66667358 352.33332858 240.75 351 C232.5 339 224.25 327 216 315 C209.45472964 321.47661368 203.35075067 328.27646068 197.5625 335.4375 C193.70291397 340.20996203 189.62800009 344.73109109 185.47265625 349.24609375 C182.25290481 352.83207284 179.24094824 356.56701492 176.21484375 360.31640625 C173.33519113 363.80550916 170.29306124 367.12996921 167.24609375 370.47265625 C164.93812402 373.06962393 162.74444137 375.73404013 160.5625 378.4375 C156.70291397 383.20996203 152.62800009 387.73109109 148.47265625 392.24609375 C145.25290481 395.83207284 142.24094824 399.56701492 139.21484375 403.31640625 C136.33519113 406.80550916 133.29306124 410.12996921 130.24609375 413.47265625 C127.93812402 416.06962393 125.74444137 418.73404013 123.5625 421.4375 C119.70291397 426.20996203 115.62800009 430.73109109 111.47265625 435.24609375 C108.25290481 438.83207284 105.24094824 442.56701492 102.21484375 446.31640625 C99.33519113 449.80550916 96.29306124 453.12996921 93.24609375 456.47265625 C90.93812402 459.06962393 88.74444137 461.73404013 86.5625 464.4375 C82.70291397 469.20996203 78.62800009 473.73109109 74.47265625 478.24609375 C71.25411459 481.83072545 68.24309726 485.56401326 65.21875 489.3125 C62.40302003 492.7231025 59.44095438 495.98080356 56.43359375 499.22265625 C53.96355765 501.79818763 53.96355765 501.79818763 52.76806641 504.51269531 C50.80434647 507.94631648 49.30133163 509.76537652 46 512 C38.37099199 513.73346572 30.25303472 512.93432764 22.5 512.625 C20.32041412 512.57480151 18.1407177 512.52918076 15.9609375 512.48828125 C10.63820156 512.37846326 5.31961438 512.21149927 0 512 C0.93778202 510.73271135 1.87794902 509.46718739 2.8190918 508.20239258 C3.34238571 507.4974617 3.86567963 506.79253082 4.40483093 506.0662384 C6.69689658 503.09730291 9.22520168 500.39806415 11.8125 497.6875 C16.38142782 492.82403104 20.67496301 487.81819921 24.85546875 482.61328125 C26.99874956 480.00152377 29.2238033 477.49634698 31.5 475 C34.59555196 471.60401318 37.55151207 468.13828469 40.4375 464.5625 C44.29708603 459.79003797 48.37199991 455.26890891 52.52734375 450.75390625 C55.74709519 447.16792716 58.75905176 443.43298508 61.78515625 439.68359375 C64.66480887 436.19449084 67.70693876 432.87003079 70.75390625 429.52734375 C73.06187598 426.93037607 75.25555863 424.26595987 77.4375 421.5625 C81.29708603 416.79003797 85.37199991 412.26890891 89.52734375 407.75390625 C92.74709519 404.16792716 95.75905176 400.43298508 98.78515625 396.68359375 C101.66480887 393.19449084 104.70693876 389.87003079 107.75390625 386.52734375 C110.06187598 383.93037607 112.25555863 381.26595987 114.4375 378.5625 C118.29708603 373.79003797 122.37199991 369.26890891 126.52734375 364.75390625 C129.74709519 361.16792716 132.75905176 357.43298508 135.78515625 353.68359375 C137.95632827 351.05291443 140.20241357 348.52057576 142.5 346 C145.61458668 342.58260628 148.5918662 339.0947765 151.5 335.5 C155.11149134 331.03579543 158.88660694 326.76997886 162.75390625 322.52734375 C165.06187598 319.93037607 167.25555863 317.26595987 169.4375 314.5625 C172.51336588 310.75912497 175.68753166 307.09917348 179 303.5 C182.43614252 299.75196974 185.79639756 295.96008341 189.0625 292.0625 C189.79597656 291.18722656 190.52945313 290.31195313 191.28515625 289.41015625 C192.9566513 287.06092516 193.62766204 285.80903492 194 283 C192.51189293 280.42303409 191.00279812 278.13620085 189.25 275.75 C188.22362583 274.3075282 187.19759347 272.86481313 186.171875 271.421875 C185.64271484 270.68646484 185.11355469 269.95105469 184.56835938 269.19335938 C182.16285691 265.8292507 179.83318469 262.41445783 177.5 259 C176.58374853 257.66638131 175.66708038 256.33304881 174.75 255 C172.91666667 252.33333333 171.08333333 249.66666667 169.25 247 C168.79641113 246.3402417 168.34282227 245.6804834 167.87548828 245.00073242 C166.95716639 243.66497667 166.0388722 242.32920188 165.12060547 240.9934082 C162.85448843 237.69698255 160.58791941 234.40086973 158.3203125 231.10546875 C152.81481536 223.10329267 147.32365612 215.09145005 141.84082031 207.07373047 C137.01965501 200.02510096 132.18369427 192.986731 127.34277344 185.95166016 C125.06091481 182.63508236 122.78054245 179.3174829 120.5 176 C119.58334024 174.66666192 118.66667358 173.33332858 117.75 172 C97.58333333 142.66666667 77.41666667 113.33333333 57.25 84 C56.5696167 83.01036255 56.5696167 83.01036255 55.87548828 82.00073242 C54.95716639 80.66497667 54.0388722 79.32920188 53.12060547 77.9934082 C50.85448843 74.69698255 48.58791941 71.40086973 46.3203125 68.10546875 C40.81481536 60.10329267 35.32365612 52.09145005 29.84082031 44.07373047 C26.35840746 38.98238087 22.87023772 33.89505341 19.375 28.8125 C18.71467773 27.85186646 18.71467773 27.85186646 18.04101562 26.87182617 C15.69038249 23.45331179 13.33561404 20.03771098 10.9765625 16.625 C10.47850098 15.9033667 9.98043945 15.1817334 9.46728516 14.43823242 C8.51770226 13.06252222 7.56693352 11.68762948 6.61474609 10.3137207 C6.18500488 9.69070068 5.75526367 9.06768066 5.3125 8.42578125 C4.93738281 7.88348877 4.56226563 7.34119629 4.17578125 6.7824707 C2.71197754 4.5633613 1.36293472 2.28213714 0 0 Z M62 34 C64.19148423 37.89744593 66.37772289 41.70166587 68.9609375 45.35546875 C69.5075 46.13212891 70.0540625 46.90878906 70.6171875 47.70898438 C71.19726562 48.52689453 71.77734375 49.34480469 72.375 50.1875 C73.63289365 51.97259907 74.89070382 53.75775697 76.1484375 55.54296875 C76.7887793 56.44966309 77.42912109 57.35635742 78.08886719 58.29052734 C81.07119325 62.51866412 84.03515255 66.75959813 87 71 C88.16916139 72.67064951 89.33843245 74.34122228 90.5078125 76.01171875 C91.3745459 77.24994385 91.3745459 77.24994385 92.25878906 78.51318359 C93.98182936 80.97404849 95.7056522 83.43436336 97.4296875 85.89453125 C104.31728062 95.72500507 111.18294378 105.57042296 118.03417969 115.42626953 C124.09800618 124.14686679 130.18658311 132.84996444 136.28222656 141.54833984 C139.1896209 145.69786428 142.09468001 149.84902306 145 154 C146.16665575 155.66667431 147.33332241 157.33334098 148.5 159 C150.83333333 162.33333333 153.16666667 165.66666667 155.5 169 C156.07733887 169.8247583 156.65467773 170.6495166 157.24951172 171.49926758 C158.41784967 173.16834507 159.58614384 174.83745322 160.75439453 176.5065918 C163.64513489 180.63662338 166.53659854 184.76614446 169.4296875 188.89453125 C176.31728062 198.72500507 183.18294378 208.57042296 190.03417969 218.42626953 C196.09800618 227.14686679 202.18658311 235.84996444 208.28222656 244.54833984 C211.1896209 248.69786428 214.09468001 252.84902306 217 257 C218.16665575 258.66667431 219.33332241 260.33334098 220.5 262 C231 277 231 277 241.5 292 C242.07733887 292.8247583 242.65467773 293.6495166 243.24951172 294.49926758 C244.41784967 296.16834507 245.58614384 297.83745322 246.75439453 299.5065918 C249.64513489 303.63662338 252.53659854 307.76614446 255.4296875 311.89453125 C262.31728062 321.72500507 269.18294378 331.57042296 276.03417969 341.42626953 C282.09800618 350.14686679 288.18658311 358.84996444 294.28222656 367.54833984 C297.1896209 371.69786428 300.09468001 375.84902306 303 380 C304.16665575 381.66667431 305.33332241 383.33334098 306.5 385 C308.83333333 388.33333333 311.16666667 391.66666667 313.5 395 C314.07733887 395.8247583 314.65467773 396.6495166 315.24951172 397.49926758 C316.41784967 399.16834507 317.58614384 400.83745322 318.75439453 402.5065918 C321.64513489 406.63662338 324.53659854 410.76614446 327.4296875 414.89453125 C333.63561082 423.75207635 339.82681433 432.61960206 346 441.5 C351.21883316 449.00725134 356.44543984 456.50894498 361.6875 464 C362.25146484 464.80630859 362.81542969 465.61261719 363.39648438 466.44335938 C363.92951172 467.20455078 364.46253906 467.96574219 365.01171875 468.75 C365.47022217 469.40484375 365.92872559 470.0596875 366.40112305 470.734375 C366.92875244 471.48203125 367.45638184 472.2296875 368 473 C368.25288284 473.5934169 368.50576569 474.1868338 368.76631165 474.79823303 C369.95039807 477.13822616 370.88862228 478.41669494 373 480 C378.03803124 481.01073076 383.03644146 480.81435655 388.14453125 480.68359375 C389.63951802 480.67052933 391.13453486 480.66056913 392.62956238 480.65357971 C396.5545503 480.62691883 400.4777096 480.55821879 404.40197754 480.48065186 C408.4103115 480.40889685 412.41894255 480.37704239 416.42773438 480.34179688 C424.28599319 480.26684125 432.1427688 480.14745653 440 480 C437.80851577 476.10255407 435.62227711 472.29833413 433.0390625 468.64453125 C432.4925 467.86787109 431.9459375 467.09121094 431.3828125 466.29101562 C430.80273438 465.47310547 430.22265625 464.65519531 429.625 463.8125 C428.36710635 462.02740093 427.10929618 460.24224303 425.8515625 458.45703125 C425.2112207 457.55033691 424.57087891 456.64364258 423.91113281 455.70947266 C420.92880665 451.48133574 417.96487497 447.24038278 415 443 C413.83343178 441.33326443 412.66676485 439.66659794 411.5 438 C404.5 428 397.5 418 390.5 408 C389.92266113 407.1752417 389.34532227 406.3504834 388.75048828 405.50073242 C387.58215033 403.83165493 386.41385616 402.16254678 385.24560547 400.4934082 C382.35486511 396.36337662 379.46340146 392.23385554 376.5703125 388.10546875 C369.68271938 378.27499493 362.81705622 368.42957704 355.96582031 358.57373047 C349.90199382 349.85313321 343.81341689 341.15003556 337.71777344 332.45166016 C334.8103791 328.30213572 331.90531999 324.15097694 329 320 C327.83334425 318.33332569 326.66667759 316.66665902 325.5 315 C323.16666667 311.66666667 320.83333333 308.33333333 318.5 305 C317.92266113 304.1752417 317.34532227 303.3504834 316.75048828 302.50073242 C315.58215033 300.83165493 314.41385616 299.16254678 313.24560547 297.4934082 C310.35486511 293.36337662 307.46340146 289.23385554 304.5703125 285.10546875 C297.68271938 275.27499493 290.81705622 265.42957704 283.96582031 255.57373047 C277.90199382 246.85313321 271.81341689 238.15003556 265.71777344 229.45166016 C262.8103791 225.30213572 259.90531999 221.15097694 257 217 C255.83334425 215.33332569 254.66667759 213.66665902 253.5 212 C251.16666667 208.66666667 248.83333333 205.33333333 246.5 202 C245.92266113 201.1752417 245.34532227 200.3504834 244.75048828 199.50073242 C243.58215033 197.83165493 242.41385616 196.16254678 241.24560547 194.4934082 C238.35486511 190.36337662 235.46340146 186.23385554 232.5703125 182.10546875 C225.68271938 172.27499493 218.81705622 162.42957704 211.96582031 152.57373047 C205.90199382 143.85313321 199.81341689 135.15003556 193.71777344 126.45166016 C190.8103791 122.30213572 187.90531999 118.15097694 185 114 C183.83334425 112.33332569 182.66667759 110.66665902 181.5 109 C167.41796875 88.8828125 153.3359375 68.765625 139.25390625 48.6484375 C138.74006378 47.94136658 138.22622131 47.23429565 137.69680786 46.50579834 C136 44 136 44 134.6902771 41.3928833 C133.05075852 38.39656624 131.55847038 36.2792591 129 34 C123.88395389 32.60598 118.90382207 32.83026257 113.66015625 33.0234375 C112.16805276 33.04211159 110.67588754 33.05633545 109.18370056 33.0663147 C105.27427988 33.10432438 101.36863254 33.20237894 97.46069336 33.31335449 C93.46585135 33.41604182 89.47039345 33.46140501 85.47460938 33.51171875 C77.64802741 33.61865801 69.82454425 33.78909326 62 34 Z " fill="#050505" transform="translate(0,0)"/>
</svg>
