<svg width="104" height="30" viewBox="0 0 104 30" fill="none" xmlns="http://www.w3.org/2000/svg">
<g clip-path="url(#clip0_171_442)">
<path d="M37.0088 8.6416H40.2588V13.0913H44.3213V8.6416H47.5713V20.2917H44.3213V16.0846H40.2588V20.2917H37.0088V8.6416Z" fill="#A2A2B2"/>
<path d="M49.196 8.6416H52.446V20.2917H49.196V8.6416Z" fill="#A2A2B2"/>
<path d="M53.6641 20.2917V17.6219L58.4737 11.9588H53.794V8.6416H62.585V11.797L57.9052 17.2984H62.829V20.2917H53.6644H53.6641Z" fill="#A2A2B2"/>
<path d="M64.0474 8.6416H67.2974V17.2984H71.5223V20.2917H64.0477V8.6416H64.0474Z" fill="#A2A2B2"/>
<path d="M72.7405 8.6416H75.9905V20.2917H72.7405V8.6416Z" fill="#A2A2B2"/>
<path d="M85.7235 20.599V20.4696C82.6684 20.1138 80.6211 17.7836 80.6211 14.4827C80.6211 10.8258 83.1073 8.41479 86.5198 8.41479C89.9322 8.41479 92.4671 10.8258 92.4671 14.4827C92.4671 17.4113 90.8584 19.5797 88.3559 20.2756C88.6645 20.5667 89.1684 20.7611 90.0134 20.7611C90.9721 20.7611 91.7683 20.6156 92.4671 20.3244L92.6783 23.1237C91.8496 23.4148 91.0858 23.5931 89.6073 23.5931C87.1211 23.5931 85.7238 22.2175 85.7238 20.5997L85.7235 20.599ZM89.1359 14.6933C89.1359 12.9619 88.0148 11.894 86.5198 11.894C85.0247 11.894 83.9523 12.9619 83.9523 14.6933C83.9523 16.4246 84.9922 17.444 86.536 17.444C88.0798 17.444 89.1359 16.3438 89.1359 14.6933Z" fill="#A2A2B2"/>
<path d="M93.6853 8.6416H97.4876C100.461 8.6416 102.59 9.83886 102.59 12.5249C102.59 13.2692 102.493 14.143 102.037 14.9036C101.68 15.4862 101.111 16.0199 100.217 16.36L103.5 20.2917H99.6814L96.9353 16.7967V20.2917H93.6853V8.6416ZM96.9353 11.9584V14.2077H97.764C98.6902 14.2077 99.2591 13.8033 99.2591 12.9619C99.2591 12.2822 98.6415 11.9588 97.6666 11.9588H96.9353V11.9584Z" fill="#A2A2B2"/>
<path d="M11.3922 19.1477H8.63336C8.12554 19.1477 7.71387 19.5576 7.71387 20.0633V22.8105C7.71387 23.3162 8.12554 23.7261 8.63336 23.7261H11.3922C11.9 23.7261 12.3117 23.3162 12.3117 22.8105V20.0633C12.3117 19.5576 11.9 19.1477 11.3922 19.1477Z" fill="#A2A2B2"/>
<path d="M23.3463 7.24414H20.5875C20.0797 7.24414 19.668 7.65518 19.668 8.15975V10.9069C19.668 11.4115 20.08 11.8226 20.5875 11.8226H23.3463C23.8541 11.8226 24.2658 11.4115 24.2658 10.9069V8.15975C24.2658 7.65518 23.8537 7.24414 23.3463 7.24414Z" fill="#A2A2B2"/>
<path d="M11.3922 7.24414H8.63336C8.12554 7.24414 7.71387 7.65407 7.71387 8.15975V10.9069C7.71387 11.4126 8.12554 11.8226 8.63336 11.8226H11.3922C11.9 11.8226 12.3117 11.4126 12.3117 10.9069V8.15975C12.3117 7.65407 11.9 7.24414 11.3922 7.24414Z" fill="#A2A2B2"/>
<path d="M24.9774 0H6.14972C3.02931 0 0.5 2.51864 0.5 5.62588V24.3741C0.5 27.4814 3.02931 30 6.14972 30H24.9774C28.0978 30 30.6271 27.4814 30.6271 24.3741V5.62588C30.6271 2.51864 28.0978 0 24.9774 0ZM16.9096 17.7743C16.9096 17.0162 17.5275 16.4008 18.2888 16.4008H19.2083C19.9696 16.4008 20.5876 17.0162 20.5876 17.7743V18.6899C20.5876 19.448 19.9696 20.0633 19.2083 20.0633H18.2888C17.5275 20.0633 16.9096 19.448 16.9096 18.6899V17.7743ZM15.0703 22.8105C15.0703 24.8305 13.4206 26.4733 11.3919 26.4733H8.63312C6.60452 26.4733 4.9548 24.8305 4.9548 22.8105V20.0633C4.9548 18.0432 6.60452 16.4005 8.63312 16.4005H11.3919C13.4206 16.4005 15.0703 18.0432 15.0703 20.0633V22.8105ZM15.0703 10.9065C15.0703 12.9265 13.4206 14.5693 11.3919 14.5693H8.63312C6.60452 14.5693 4.9548 12.9265 4.9548 10.9065V8.15928C4.9548 6.13924 6.60452 4.49648 8.63312 4.49648H11.3919C13.4206 4.49648 15.0703 6.13924 15.0703 8.15928V10.9065ZM20.5879 25.0999C20.5879 25.8579 19.97 26.4733 19.2087 26.4733H18.2892C17.5279 26.4733 16.91 25.8579 16.91 25.0999V24.1842C16.91 23.4262 17.5279 22.8108 18.2892 22.8108H19.2087C19.97 22.8108 20.5879 23.4262 20.5879 24.1842V25.0999ZM21.9672 22.8105C21.2059 22.8105 20.5879 22.1951 20.5879 21.4371C20.5879 20.679 21.2059 20.0636 21.9672 20.0636C22.7285 20.0636 23.3464 20.679 23.3464 21.4371C23.3464 22.1951 22.7285 22.8105 21.9672 22.8105ZM27.0247 18.6899C27.0247 19.448 26.4068 20.0633 25.6455 20.0633H24.726C23.9647 20.0633 23.3468 19.448 23.3468 18.6899V17.7743C23.3468 17.0162 23.9647 16.4008 24.726 16.4008H25.6455C26.4068 16.4008 27.0247 17.0162 27.0247 17.7743V18.6899ZM27.0247 10.9065C27.0247 12.9265 25.375 14.5693 23.3464 14.5693H20.5876C18.559 14.5693 16.9093 12.9265 16.9093 10.9065V8.15928C16.9093 6.13924 18.559 4.49648 20.5876 4.49648H23.3464C25.375 4.49648 27.0247 6.13924 27.0247 8.15928V10.9065Z" fill="#A2A2B2"/>
</g>
<defs>
<clipPath id="clip0_171_442">
<rect width="103" height="30" fill="white" transform="translate(0.5)"/>
</clipPath>
</defs>
</svg>
