<svg width="104" height="30" viewBox="0 0 104 30" fill="none" xmlns="http://www.w3.org/2000/svg">
<g clip-path="url(#clip0_171_1002)">
<path d="M15.0887 13.826C15.0887 13.6473 15.2533 13.4986 15.7685 13.4986C16.2243 13.4986 16.7098 13.6248 17.2254 13.8854L17.7557 12.6132C17.3299 12.3752 16.7921 12.2338 16.2391 12.1818V11.3857H15.1858V12.1966C13.9602 12.3675 13.3475 13.0746 13.3475 13.9153C13.3475 15.8569 16.2391 15.3288 16.2391 15.9835C16.2391 16.1621 16.0598 16.2662 15.5594 16.2662C14.9842 16.2662 14.3267 16.0802 13.8334 15.7901L13.2656 17.0696C13.7141 17.345 14.4386 17.5457 15.1858 17.5904V18.3791H16.2391V17.5531C17.3973 17.3523 17.98 16.653 17.98 15.8492C17.98 13.9297 15.0884 14.4504 15.0884 13.8256L15.0887 13.826Z" fill="#A2A2B2"/>
<path d="M24.9774 0H6.14972C3.02931 0 0.5 2.51864 0.5 5.62588V24.3741C0.5 27.4814 3.02931 30 6.14972 30H24.9774C28.0978 30 30.6271 27.4814 30.6271 24.3741V5.62588C30.6271 2.51864 28.0978 0 24.9774 0ZM3.9714 7.91948L11.3468 3.29184V5.29923H17.0272C19.5523 5.29923 21.6063 7.34459 21.6063 9.859V10.6431C21.3704 10.3133 21.1063 10.0025 20.815 9.71273C20.1412 9.04184 19.3559 8.51477 18.4816 8.14627C17.5756 7.76477 16.6137 7.57138 15.6232 7.57138C14.6328 7.57138 13.6709 7.76477 12.7648 8.14627C11.8902 8.51477 11.1052 9.04184 10.4315 9.71273C9.97105 10.1712 9.57839 10.6814 9.25777 11.2363L3.97175 7.91983L3.9714 7.91948ZM21.5989 14.8826C21.5989 18.1688 18.9234 20.833 15.6232 20.833C12.3231 20.833 9.6476 18.1688 9.6476 14.8826C9.6476 11.5963 12.3231 8.93214 15.6232 8.93214C18.9234 8.93214 21.5989 11.5963 21.5989 14.8826ZM19.8994 26.4733V24.4659H14.2189C11.6939 24.4659 9.63983 22.4205 9.63983 19.9061V19.122C9.87571 19.4518 10.1398 19.7627 10.4311 20.0524C11.1049 20.7233 11.8902 21.2504 12.7645 21.6185C13.6706 22.0004 14.6324 22.1937 15.6229 22.1937C16.6133 22.1937 17.5752 22.0004 18.4813 21.6185C19.3559 21.2504 20.1409 20.7233 20.8146 20.0524C21.2751 19.5939 21.6677 19.0837 21.9883 18.5288L27.2744 21.8453L19.8994 26.4729V26.4733Z" fill="#A2A2B2"/>
<path d="M53.1321 1.98071H56.0156V5.90933H59.6201V1.98071H62.5035V12.2666H59.6201V8.55209H56.0156V12.2666H53.1321V1.98071Z" fill="#A2A2B2"/>
<path d="M63.9456 1.98071H66.829V12.2666H63.9456V1.98071Z" fill="#A2A2B2"/>
<path d="M67.9103 12.2666V9.90934L72.1779 4.90933H68.0254V1.98071H75.8255V4.76658L71.673 9.62382H76.0416V12.2669H67.9099L67.9103 12.2666Z" fill="#A2A2B2"/>
<path d="M77.1232 1.98071H80.0066V9.62382H83.7552V12.2669H77.1228V1.98071H77.1232Z" fill="#A2A2B2"/>
<path d="M84.8369 1.98071H87.7204V12.2666H84.8369V1.98071Z" fill="#A2A2B2"/>
<path d="M37.0088 15.4377H40.4699V20.1533H44.7966V15.4377H48.2577V27.7844H44.7966V23.3259H40.4699V27.7844H37.0088V15.4377Z" fill="#A2A2B2"/>
<path d="M57.8286 26.0183H53.3463L52.758 27.7844H49.21L53.6231 15.4377H57.7767L62.2417 27.7844H58.4342L57.8286 26.0183ZM55.5786 19.3818L54.3498 23.0172H56.8074L55.5786 19.3818Z" fill="#A2A2B2"/>
<path d="M64.9591 27.7844L60.4248 15.4377H64.4919L67.1745 24.5777L69.8051 15.4377H73.5262L69.113 27.7844H64.9594H64.9591Z" fill="#A2A2B2"/>
<path d="M80.3962 26.0183H75.9139L75.3256 27.7844H71.7776L76.1907 15.4377H80.3443L84.8094 27.7844H81.0018L80.3962 26.0183ZM78.1466 19.3818L76.9178 23.0172H79.3754L78.1466 19.3818Z" fill="#A2A2B2"/>
<path d="M85.7609 15.4379H89.222V24.6119H93.7217V27.7842H85.7605V15.4375L85.7609 15.4379Z" fill="#A2A2B2"/>
<path d="M95.0198 15.4379H103.5V18.9533H98.4809V20.1365H103.154V23.3088H98.4809V24.6119H103.5V27.7842H95.0198V15.4375V15.4379Z" fill="#A2A2B2"/>
</g>
<defs>
<clipPath id="clip0_171_1002">
<rect width="103" height="30" fill="white" transform="translate(0.5)"/>
</clipPath>
</defs>
</svg>
