<svg width="104" height="30" viewBox="0 0 104 30" fill="none" xmlns="http://www.w3.org/2000/svg">
<g clip-path="url(#clip0_171_330)">
<path d="M37.0088 3.71558H39.1451C40.6885 3.71558 41.4209 4.32317 41.4209 5.31297C41.4209 5.88611 41.168 6.33759 40.697 6.57176C41.412 6.80629 41.7171 7.34462 41.7171 8.10868C41.7171 9.16811 41.0282 9.96663 39.2669 9.96663H37.0088V3.71558ZM38.7094 5.49546V6.3724H39.1278C39.4767 6.3724 39.6334 6.20749 39.6334 5.92092C39.6334 5.59954 39.4417 5.49546 39.119 5.49546H38.709H38.7094ZM38.7094 7.63154V8.5693H39.3199C39.7471 8.5693 39.93 8.36958 39.93 8.06579C39.93 7.7968 39.7207 7.63154 39.3022 7.63154H38.7094Z" fill="#A2A2B2"/>
<path d="M46.2338 9.07282H43.9756L43.679 9.96698H41.8916L44.1151 3.71558H46.2076L48.4573 9.96698H46.5392L46.2341 9.07282H46.2338ZM45.1003 5.71276L44.4813 7.55348H45.7193L45.1003 5.71276Z" fill="#A2A2B2"/>
<path d="M48.9363 3.71558H50.6803L52.9299 7.3186V3.71558H54.5429V9.96698H52.7989L50.5493 6.66776V9.96698H48.9363V3.71558Z" fill="#A2A2B2"/>
<path d="M55.4149 3.71558H57.1589V6.33759L58.8852 3.71558H61.0388L58.798 6.77183L61.2567 9.96698H59.0855L57.1585 7.44026V9.96698H55.4146V3.71558H55.4149Z" fill="#A2A2B2"/>
<path d="M65.6862 9.07282H63.4277L63.1314 9.96698H61.344L63.5675 3.71558H65.66L67.9097 9.96698H65.9912L65.6862 9.07282ZM64.5523 5.71276L63.9333 7.55348H65.1713L64.5523 5.71276Z" fill="#A2A2B2"/>
<path d="M73.9511 9.64568C73.4367 9.92346 72.8611 10.0884 72.181 10.0884C70.7075 10.0884 69.9141 9.47198 69.9141 8.40412C69.9141 7.52719 70.4285 7.04969 71.1521 6.68506C70.9688 6.32923 70.8731 5.98183 70.8731 5.62564C70.8731 5.46073 70.8904 5.30426 70.9165 5.15693C71.091 4.18436 71.8406 3.59399 72.8872 3.59399C73.9338 3.59399 74.6835 4.24519 74.6835 5.21776C74.6835 6.03387 74.2912 6.50292 73.4889 6.92803C73.4105 6.96284 73.3321 7.00609 73.2534 7.0409C73.4889 7.30989 73.7764 7.60525 74.1079 7.93506C74.5525 7.54442 74.9974 7.07536 75.3985 6.60665L75.6602 8.14357C75.4596 8.3781 75.2502 8.60384 75.0324 8.82079C75.4074 9.17662 75.8258 9.55883 76.2703 9.96671H74.3173C74.1867 9.85384 74.0645 9.74976 73.9511 9.64533V9.64568ZM72.9049 8.69948C72.5126 8.33485 72.181 8.00503 71.9021 7.70089C71.6665 7.86579 71.562 8.0307 71.562 8.25644C71.562 8.29125 71.562 8.32606 71.5708 8.36052C71.6143 8.69034 71.9021 8.812 72.3293 8.812C72.5126 8.812 72.7043 8.76875 72.9049 8.69913V8.69948ZM72.5475 6.07747C72.5737 6.06024 72.6086 6.05145 72.6348 6.03422C72.9836 5.86931 73.1319 5.73042 73.1581 5.52191V5.47866C73.1581 5.27894 73.0274 5.14006 72.8007 5.14006C72.5913 5.14006 72.4172 5.26172 72.4172 5.60876C72.4172 5.74765 72.4607 5.90412 72.5479 6.07747H72.5475Z" fill="#A2A2B2"/>
<path d="M78.3456 3.71558H80.0896V6.33759L81.8159 3.71558H83.9695L81.7287 6.77183L84.1874 9.96698H82.0161L80.0892 7.44026V9.96698H78.3452V3.71558H78.3456Z" fill="#A2A2B2"/>
<path d="M84.6671 3.71558H86.7073C88.303 3.71558 89.4453 4.35798 89.4453 5.79926C89.4453 6.1987 89.3931 6.6674 89.1487 7.07563C88.957 7.38822 88.6519 7.67479 88.172 7.85693L89.9333 9.96663H87.8843L86.4107 8.0911V9.96663H84.6667V3.71558H84.6671ZM86.4107 5.49546V6.70221H86.8553C87.3525 6.70221 87.6576 6.48527 87.6576 6.03379C87.6576 5.66916 87.3264 5.49546 86.803 5.49546H86.4107Z" fill="#A2A2B2"/>
<path d="M90.3689 3.71558H94.6415V5.49546H92.1129V6.09462H94.4671V7.70081H92.1129V8.36079H94.6415V9.96698H90.3689V3.71558Z" fill="#A2A2B2"/>
<path d="M95.4263 3.71558H97.5188C100.012 3.71558 100.989 5.11361 100.989 6.85868C100.989 8.60376 99.8295 9.96698 97.4143 9.96698H95.4263V3.71558ZM97.1699 5.49546V8.36079H97.4927C98.6523 8.36079 99.2017 7.77043 99.2017 6.90229C99.2017 6.03414 98.6261 5.49582 97.5276 5.49582H97.1703L97.1699 5.49546Z" fill="#A2A2B2"/>
<path d="M101.538 2.44802C101.538 1.87488 101.948 1.50146 102.523 1.50146C103.098 1.50146 103.5 1.87488 103.5 2.44802C103.5 3.02116 103.073 3.39457 102.523 3.39457C101.974 3.39457 101.538 3.02116 101.538 2.44802ZM101.643 3.7156H103.387V9.96701H101.643V3.7156Z" fill="#A2A2B2"/>
<path d="M45.4351 15.0122H48.9916V20.3596L52.5124 15.0122H56.9047L52.3348 21.245L57.3492 27.7612H52.9216L48.9919 22.6085V27.7612H45.4354V15.0122H45.4351Z" fill="#A2A2B2"/>
<path d="M66.3821 25.9376H61.7765L61.172 27.7614H57.5269L62.0611 15.0125H66.3288L70.9163 27.7614H67.0043L66.3817 25.9376H66.3821ZM64.0703 19.0849L62.8079 22.8388H65.333L64.0703 19.0849Z" fill="#A2A2B2"/>
<path d="M71.894 15.0122H76.0551C79.3089 15.0122 81.6387 16.3223 81.6387 19.2619C81.6387 20.0762 81.5321 21.0326 81.0342 21.8649C80.643 22.5024 80.0208 23.0867 79.0427 23.4584L82.6345 27.7612H78.4558L75.4505 23.9366V27.7612H71.894V15.0122ZM75.4505 18.6423V21.1036H76.3573C77.3707 21.1036 77.9933 20.6609 77.9933 19.7401C77.9933 18.9964 77.3174 18.6423 76.2507 18.6423H75.4505Z" fill="#A2A2B2"/>
<path d="M82.51 15.0122H92.2547V18.6423H89.1608V27.7615H85.6043V18.6423H82.5104V15.0122H82.51Z" fill="#A2A2B2"/>
<path d="M93.2324 15.0122H96.7889V27.7612H93.2324V15.0122Z" fill="#A2A2B2"/>
<path d="M24.934 0H6.19315C3.04873 0 0.5 2.53797 0.5 5.66913V24.3309C0.5 27.4617 3.04873 30 6.19315 30H24.934C28.078 30 30.6271 27.462 30.6271 24.3309V5.66913C30.6271 2.53797 28.0784 0 24.934 0ZM3.2221 13.4448C3.27119 12.4286 4.1137 11.6199 5.14619 11.6199H21.0395C22.072 11.6199 22.9145 12.4286 22.9636 13.4448H3.2221ZM22.9661 23.98C22.9661 25.0394 22.1035 25.8984 21.0395 25.8984H5.14619C4.08227 25.8984 3.21963 25.0394 3.21963 23.98V19.5861H22.9661V23.98ZM22.9661 18.147H3.21963V14.8833H22.9661V18.147ZM26.3153 18.4518L24.411 18.7862V13.5383C24.411 11.6871 22.8987 10.1811 21.0395 10.1811H6.3863L6.20621 9.16491C6.02154 8.12166 6.72105 7.12658 7.76871 6.94269C7.76871 6.94269 24.0049 4.10197 24.1162 4.10197C25.0335 4.10197 25.8464 4.75668 26.0109 5.68741L27.8778 16.2296C28.0625 17.2729 27.363 18.2679 26.3153 18.4518Z" fill="#A2A2B2"/>
<path d="M5.67754 24.1698H8.95508C9.35409 24.1698 9.67754 23.8477 9.67754 23.4504C9.67754 23.053 9.35409 22.731 8.95508 22.731H5.67754C5.27852 22.731 4.95508 23.053 4.95508 23.4504C4.95508 23.8477 5.27852 24.1698 5.67754 24.1698Z" fill="#A2A2B2"/>
</g>
<defs>
<clipPath id="clip0_171_330">
<rect width="103" height="30" fill="white" transform="translate(0.5)"/>
</clipPath>
</defs>
</svg>
