<svg width="103" height="30" viewBox="0 0 103 30" fill="none" xmlns="http://www.w3.org/2000/svg">
<g clip-path="url(#clip0_171_1114)">
<path d="M36.4791 8.54834H40.1808V14.1689L43.8454 8.54834H48.4172L43.6605 15.0997L48.8798 21.9488H44.271L40.1805 16.5329V21.9488H36.4788V8.54834H36.4791Z" fill="#A2A2B2"/>
<path d="M49.8979 8.54834H54.2291C57.6161 8.54834 60.0407 9.92563 60.0407 13.0149C60.0407 13.8711 59.9295 14.876 59.4113 15.7509C59.0039 16.4211 58.3563 17.035 57.3384 17.426L61.0772 21.9485H56.7275L53.5997 17.9284V21.9485H49.8979V8.54834ZM53.5997 12.3637V14.9506H54.5434C55.5984 14.9506 56.2464 14.4854 56.2464 13.5174C56.2464 12.7358 55.5432 12.3634 54.4326 12.3634H53.5997V12.3637Z" fill="#A2A2B2"/>
<path d="M61.7805 5.83097C61.7805 4.60277 62.6505 3.80249 63.872 3.80249C65.0934 3.80249 65.9448 4.60277 65.9448 5.83097C65.9448 7.05917 65.0378 7.85945 63.872 7.85945C62.7061 7.85945 61.7805 7.05917 61.7805 5.83097ZM62.0026 8.54827H65.7043V21.9484H62.0026V8.54827Z" fill="#A2A2B2"/>
<path d="M71.2569 18.5796V21.9485H67.5552V8.54834H71.7936C75.3289 8.54834 77.8459 10.0744 77.8459 13.5177C77.8459 16.9611 75.4583 18.58 71.923 18.58H71.2569V18.5796ZM71.2569 12.3637V15.323H72.1083C73.3298 15.323 74.0519 14.8578 74.0519 13.8342C74.0519 12.8106 73.3116 12.3637 72.1083 12.3637H71.2569Z" fill="#A2A2B2"/>
<path d="M78.3088 8.54834H88.4516V12.3637H85.2311V21.9485H81.5294V12.3637H78.3088V8.54834Z" fill="#A2A2B2"/>
<path d="M95.7256 8.28784C99.6308 8.28784 102.5 11.061 102.5 15.2671C102.5 19.4731 99.7605 22.2091 95.7626 22.2091C91.7648 22.2091 89.0068 19.399 89.0068 15.2671C89.0068 11.1352 91.8385 8.28784 95.7256 8.28784ZM98.7055 15.509C98.7055 13.5174 97.4285 12.2892 95.7256 12.2892C94.0226 12.2892 92.8012 13.5174 92.8012 15.509C92.8012 17.5006 93.9859 18.6729 95.7441 18.6729C97.5023 18.6729 98.7055 17.4074 98.7055 15.509Z" fill="#A2A2B2"/>
<path d="M24.7398 0H6.09487C3.00475 0 0.5 2.51864 0.5 5.62588V24.3741C0.5 27.4814 3.00475 30 6.09487 30H24.7398C27.8299 30 30.3346 27.4814 30.3346 24.3741V5.62588C30.3346 2.51864 27.8299 0 24.7398 0ZM21.5388 22.7493C20.7275 23.3738 19.6306 23.7567 18.2616 23.9072V26.4733H16.4667V23.9754H15.075V26.4733H13.2755V23.9754H8.67025V21.6646L10.361 21.3045V10.2514L8.67025 9.89135V7.57138H13.2755V4.78657H15.0704V7.57138H16.0541C16.1946 7.57138 16.3261 7.57138 16.4622 7.57595V4.78657H18.2616V7.72644H18.1438C19.2316 7.90436 20.1383 8.23242 20.8636 8.71097C22.0151 9.46765 22.5906 10.5981 22.5906 12.102C22.5906 12.8769 22.4091 13.5696 22.0423 14.1804C21.6755 14.7911 21.1132 15.256 20.3516 15.5707C20.9999 15.712 21.5301 15.9536 21.9427 16.2954C22.3508 16.6371 22.6543 17.052 22.8494 17.5352C23.0396 18.0229 23.1396 18.5471 23.1442 19.1076C23.1442 20.7166 22.6092 21.929 21.5395 22.7493H21.5388Z" fill="#A2A2B2"/>
<path d="M18.3072 17.2207C17.9946 17.0656 17.5819 16.9883 17.0742 16.9883H14.2957V20.9672H16.884C17.6638 20.9672 18.2484 20.8167 18.6383 20.5069C19.0328 20.1971 19.2275 19.732 19.223 19.0941C19.223 18.6247 19.1506 18.2281 19.0009 17.9183C18.8513 17.6085 18.6201 17.3758 18.3075 17.2211L18.3072 17.2207Z" fill="#A2A2B2"/>
<path d="M17.9671 13.9347C18.4249 13.6383 18.656 13.178 18.656 12.5535C18.656 11.87 18.4431 11.3686 18.0123 11.0584C17.5818 10.7487 16.9289 10.589 16.0541 10.5936H14.2952V14.3812H15.8862C16.8153 14.3812 17.5091 14.2307 17.9668 13.9347H17.9671Z" fill="#A2A2B2"/>
</g>
<defs>
<clipPath id="clip0_171_1114">
<rect width="102" height="30" fill="white" transform="translate(0.5)"/>
</clipPath>
</defs>
</svg>
