<svg width="104" height="30" viewBox="0 0 104 30" fill="none" xmlns="http://www.w3.org/2000/svg">
<g clip-path="url(#clip0_171_778)">
<path d="M40.3368 16.7103V19.7092H37.0088V7.77954H40.8192C43.9975 7.77954 46.2606 9.13819 46.2606 12.2036C46.2606 15.269 44.114 16.7106 40.9357 16.7106H40.3368V16.7103ZM40.3368 11.1762V13.8108H41.1024C42.2005 13.8108 42.8495 13.3966 42.8495 12.4852C42.8495 11.5738 42.1839 11.1762 41.1024 11.1762H40.3368Z" fill="#A2A2B2"/>
<path d="M53.7651 18.0028H49.4555L48.8898 19.7096H45.4788L49.722 7.77954H53.7157L58.0088 19.7096H54.3481L53.7658 18.0028H53.7651ZM51.602 11.5904L50.4205 15.103H52.7835L51.602 11.5904Z" fill="#A2A2B2"/>
<path d="M62.2511 16.7103V19.7092H58.9231V7.77954H62.7335C65.9118 7.77954 68.1745 9.13819 68.1745 12.2036C68.1745 15.269 66.028 16.7106 62.8496 16.7106H62.2508L62.2511 16.7103ZM62.2511 11.1762V13.8108H63.0167C64.1148 13.8108 64.7638 13.3966 64.7638 12.4852C64.7638 11.5738 64.0982 11.1762 63.0167 11.1762H62.2511Z" fill="#A2A2B2"/>
<path d="M75.6789 18.0028H71.3693L70.8036 19.7096H67.3926L71.6359 7.77954H75.6295L79.9226 19.7096H76.2619L75.6797 18.0028H75.6789ZM73.5158 11.5904L72.3343 15.103H74.6973L73.5158 11.5904Z" fill="#A2A2B2"/>
<path d="M80.8369 7.77954H84.7306C87.7758 7.77954 89.9556 9.00563 89.9556 11.7563C89.9556 12.5186 89.8556 13.4132 89.3899 14.192C89.0237 14.7883 88.4414 15.3351 87.5262 15.6832L90.8874 19.7096H86.9771L84.165 16.1305V19.7096H80.8369V7.77954ZM84.165 11.1762V13.4793H85.0135C85.9619 13.4793 86.5442 13.0651 86.5442 12.2032C86.5442 11.5074 85.9118 11.1758 84.9135 11.1758H84.1646L84.165 11.1762Z" fill="#A2A2B2"/>
<path d="M99.2566 18.0028H94.9469L94.3812 19.7096H90.9702L95.2135 7.77954H99.2071L103.5 19.7096H99.8396L99.2573 18.0028H99.2566ZM97.0934 11.5904L95.912 15.103H98.2749L97.0934 11.5904Z" fill="#A2A2B2"/>
<path d="M24.9774 0H6.14972C3.02931 0 0.5 2.51864 0.5 5.62588V24.3741C0.5 27.4814 3.02931 30 6.14972 30H24.9774C28.0978 30 30.6271 27.4814 30.6271 24.3741V5.62588C30.6271 2.51864 28.0978 0 24.9774 0ZM22.72 10.5229V13.9314C22.72 17.5837 19.7249 20.5661 16.0572 20.5661H14.1624C13.2454 20.5661 12.3287 20.3228 11.5339 19.9575V25.4357H8.11088V10.5229C8.11088 6.99262 10.9838 4.13151 14.5293 4.13151H16.363C19.9082 4.13151 22.7814 6.99226 22.72 10.5229Z" fill="#A2A2B2"/>
<path d="M16.4237 7.60132H14.59C12.9396 7.60132 11.595 8.94028 11.595 10.5837V14.5401C11.595 16.0011 12.7563 17.1576 14.2235 17.1576H16.0572C17.8298 17.1576 19.2969 15.6966 19.2969 13.9315H19.4191V10.5837C19.4191 8.94028 18.0745 7.60132 16.4241 7.60132H16.4237Z" fill="#A2A2B2"/>
</g>
<defs>
<clipPath id="clip0_171_778">
<rect width="103" height="30" fill="white" transform="translate(0.5)"/>
</clipPath>
</defs>
</svg>
